<svg width="664" height="664" viewBox="0 0 664 664" fill="none" xmlns="http://www.w3.org/2000/svg">
<circle cx="332" cy="332" r="332" fill="#F0906E"/>
<g clip-path="url(#clip0_4_468)">
<path d="M231.063 178C225.37 178 220.75 182.62 220.75 188.312V205.321V356.008V497.688C220.75 503.38 225.37 508 231.063 508C236.755 508 241.375 503.38 241.375 497.688V360.848C252.568 352.185 293.941 325.483 358.704 345.076C447.488 372.04 518.548 267.265 521.518 262.796C523.896 259.221 523.814 254.533 521.298 251.054C518.781 247.561 514.368 245.994 510.215 247.135C509.5 247.355 438.509 266 374.461 221.134C325.539 186.841 266.703 189.811 241.375 193.166V188.312C241.375 182.62 236.755 178 231.063 178ZM362.65 238.005C409.538 270.854 458.9 273.576 488.586 271.225C464.826 298.189 417.073 341.213 364.671 325.331C305.835 307.484 263.471 323.2 241.375 336.056V214.011C261.986 211.069 318.155 206.861 362.65 238.005Z" fill="white"/>
</g>
<defs>
<clipPath id="clip0_4_468">
<rect width="330" height="330" fill="white" transform="translate(207 178)"/>
</clipPath>
</defs>
</svg>
