<svg width="664" height="664" viewBox="0 0 664 664" fill="none" xmlns="http://www.w3.org/2000/svg">
<circle cx="332" cy="332" r="332" fill="#F0906E"/>
<g clip-path="url(#clip0_4_466)">
<path d="M245.553 279.526C242.521 276.495 237.593 276.495 234.562 279.526C231.522 282.566 231.522 287.486 234.562 290.518C237.593 293.557 242.522 293.557 245.553 290.518C248.591 287.486 248.591 282.566 245.553 279.526Z" fill="white"/>
<path d="M350.823 492.031C354.25 487.389 356.103 481.796 356.103 475.916C356.103 460.914 343.898 448.709 328.896 448.709H196.752C189.482 448.709 182.65 451.539 177.514 456.676C172.376 461.813 169.546 468.645 169.546 475.916C169.546 481.939 171.517 487.51 174.844 492.022C162.466 498.53 154 511.512 154 526.441V534.214C154 538.507 157.481 541.988 161.773 541.988H363.875C368.168 541.988 371.649 538.507 371.649 534.214V526.441C371.649 511.519 363.191 498.542 350.823 492.031ZM188.506 467.668C190.707 465.466 193.636 464.255 196.752 464.255H328.896C335.326 464.255 340.556 469.485 340.556 475.914C340.556 479.031 339.343 481.959 337.142 484.161C334.941 486.362 332.012 487.574 328.896 487.574H196.752C190.323 487.574 185.093 482.343 185.093 475.915C185.093 472.798 186.305 469.869 188.506 467.668ZM169.546 526.441C169.546 513.583 180.008 503.121 192.866 503.121H196.752H328.896H332.783C345.641 503.121 356.103 513.583 356.103 526.441H169.546Z" fill="white"/>
<path d="M544.766 470.581C542.126 466.49 538.976 462.872 535.403 459.828L499.081 428.149C498.798 427.723 498.47 427.319 498.095 426.944C497.464 426.313 496.749 425.821 495.988 425.453L474.023 406.295L372.354 317.607C376.516 313.256 378.807 307.567 378.807 301.517C378.807 295.284 376.381 289.426 371.971 285.017C370.048 283.097 367.862 281.586 365.527 280.48L374.932 271.074C377.561 271.773 380.263 272.131 382.966 272.131C390.927 272.13 398.889 269.1 404.949 263.039C410.824 257.165 414.059 249.357 414.059 241.052C414.059 232.748 410.824 224.939 404.95 219.065L338.993 153.11C333.119 147.236 325.31 144.001 317.003 144.001C308.7 144.001 300.893 147.236 295.02 153.11C286.901 161.229 284.229 172.756 286.985 183.128L193.14 276.972C190.547 276.282 187.849 275.919 185.092 275.919C176.784 275.919 168.979 279.152 163.109 285.02C150.985 297.144 150.985 316.871 163.109 328.995L229.064 394.951C235.127 401.013 243.089 404.044 251.052 404.044C259.015 404.044 266.977 401.013 273.04 394.951C281.158 386.832 283.831 375.305 281.074 364.934L290.461 355.547C291.589 357.902 293.119 360.076 295.021 361.976C299.425 366.381 305.281 368.807 311.512 368.807C317.556 368.807 323.243 366.519 327.6 362.362L435.889 486.779C436.187 487.245 436.535 487.689 436.943 488.096C437.082 488.236 437.23 488.362 437.377 488.488L469.645 525.563C470.447 526.51 471.305 527.441 472.195 528.331C481.057 537.191 492.763 541.998 505.053 541.998C507.219 541.998 509.406 541.849 511.596 541.546C526.233 539.52 538.882 530.764 546.3 517.52C554.425 503.004 553.821 484.576 544.766 470.581ZM306.014 164.104C308.951 161.166 312.855 159.548 317.004 159.548C321.158 159.548 325.064 161.166 328.001 164.104L393.957 230.059C396.895 232.997 398.512 236.901 398.512 241.053C398.512 245.205 396.895 249.109 393.956 252.047C387.897 258.108 378.036 258.108 371.976 252.047L306.018 186.089C306.016 186.087 306.015 186.086 306.014 186.085C299.953 180.024 299.953 170.164 306.014 164.104ZM262.046 383.958C255.985 390.02 246.119 390.02 240.058 383.958L174.102 318.002C168.04 311.94 168.04 302.077 174.102 296.014C177.034 293.081 180.938 291.465 185.092 291.465C189.246 291.465 193.147 293.08 196.078 296.011L262.046 361.978C268.107 368.037 268.107 377.898 262.046 383.958ZM294.774 329.248L273.039 350.984L207.076 285.022L295.02 197.077L360.981 263.039L339.206 284.815C339.136 284.882 339.066 284.947 338.992 285.021L295.042 328.972C294.951 329.061 294.863 329.154 294.774 329.248ZM322.53 345.465C322.514 345.48 322.5 345.495 322.484 345.51L317.01 350.984C315.542 352.452 313.59 353.261 311.511 353.261C309.433 353.261 307.481 352.452 306.013 350.984C304.543 349.514 303.734 347.56 303.734 345.481C303.734 343.446 304.51 341.531 305.92 340.087L350.074 295.933C353.1 292.99 357.992 293.026 360.983 296.014C362.452 297.483 363.261 299.437 363.261 301.517C363.261 303.594 362.454 305.543 360.982 307.012L355.54 312.454C355.503 312.49 355.465 312.528 355.429 312.565L322.53 345.465ZM338.627 351.353L361.346 328.634L457.536 412.537L422.436 447.638L338.627 351.353ZM432.667 459.393L469.279 422.78L481.022 433.023L442.897 471.149L432.667 459.393ZM532.736 509.925C527.719 518.882 519.237 524.794 509.465 526.147C499.716 527.496 490.137 524.285 483.185 517.337C482.588 516.74 482.016 516.117 481.482 515.486C481.457 515.457 481.433 515.427 481.407 515.398L453.127 482.904L492.765 443.265L525.219 471.574C525.243 471.596 525.268 471.617 525.294 471.639C527.723 473.704 529.878 476.184 531.707 479.019C537.586 488.102 537.998 500.524 532.736 509.925Z" fill="white"/>
<path d="M300.517 224.561C297.481 221.525 292.56 221.525 289.524 224.561L256.543 257.542C253.507 260.578 253.507 265.5 256.543 268.535C258.061 270.053 260.05 270.811 262.039 270.811C264.029 270.811 266.018 270.052 267.536 268.535L300.517 235.553C303.553 232.519 303.553 227.597 300.517 224.561Z" fill="white"/>
</g>
<defs>
<clipPath id="clip0_4_466">
<rect width="398" height="398" fill="white" transform="translate(154 144)"/>
</clipPath>
</defs>
</svg>
