<svg width="664" height="664" viewBox="0 0 664 664" fill="none" xmlns="http://www.w3.org/2000/svg">
<circle cx="332" cy="332" r="332" fill="#F0906E"/>
<path d="M528.824 542.06H474.332V196.94C474.332 195.22 473.698 193.56 472.551 192.277C471.405 190.995 469.826 190.18 468.116 189.988L284.116 169.22C283.137 169.11 282.145 169.207 281.206 169.506C280.268 169.806 279.402 170.3 278.668 170.956C277.933 171.613 277.345 172.417 276.943 173.317C276.54 174.216 276.332 175.191 276.332 176.176V189.94H196.668C194.812 189.94 193.031 190.678 191.718 191.99C190.406 193.303 189.668 195.083 189.668 196.94V542.06H135.176C133.32 542.06 131.539 542.798 130.226 544.11C128.914 545.423 128.176 547.203 128.176 549.06C128.176 550.917 128.914 552.697 130.226 554.01C131.539 555.322 133.32 556.06 135.176 556.06H276.332V569.824C276.332 571.681 277.07 573.461 278.382 574.774C279.695 576.086 281.476 576.824 283.332 576.824C283.599 576.826 283.867 576.811 284.132 576.78L467.732 556.06H528.836C530.693 556.06 532.473 555.322 533.786 554.01C535.099 552.697 535.836 550.917 535.836 549.06C535.836 547.203 535.099 545.423 533.786 544.11C532.473 542.798 530.693 542.06 528.836 542.06H528.824ZM203.668 203.94H276.332V221.94H228.664C226.808 221.94 225.027 222.678 223.714 223.99C222.402 225.303 221.664 227.083 221.664 228.94V542.06H203.664L203.668 203.94ZM235.668 542.06V235.94H276.332V542.06H235.668ZM290.332 184.008L460.332 203.208V542.808L290.332 562.008V184.008Z" fill="white"/>
<path d="M320.5 352.168C316.38 352.168 312.352 353.39 308.926 355.679C305.501 357.968 302.83 361.221 301.254 365.028C299.677 368.834 299.264 373.023 300.068 377.064C300.872 381.105 302.856 384.817 305.77 387.73C308.683 390.644 312.395 392.628 316.436 393.432C320.477 394.236 324.665 393.823 328.472 392.246C332.279 390.669 335.532 387.999 337.821 384.574C340.11 381.148 341.332 377.12 341.332 373C341.326 367.477 339.129 362.182 335.223 358.277C331.318 354.371 326.023 352.174 320.5 352.168ZM320.5 379.832C319.149 379.832 317.828 379.431 316.704 378.681C315.581 377.93 314.705 376.863 314.188 375.614C313.671 374.366 313.536 372.992 313.799 371.667C314.063 370.342 314.714 369.124 315.669 368.169C316.625 367.214 317.842 366.563 319.167 366.299C320.492 366.036 321.866 366.171 323.114 366.688C324.363 367.205 325.43 368.081 326.181 369.204C326.931 370.328 327.332 371.649 327.332 373C327.33 374.811 326.609 376.548 325.329 377.829C324.048 379.109 322.311 379.83 320.5 379.832Z" fill="white"/>
</svg>
