<svg width="664" height="664" viewBox="0 0 664 664" fill="none" xmlns="http://www.w3.org/2000/svg">
<circle cx="332" cy="332" r="332" fill="#F0906E"/>
<path d="M232.629 293.7H205.99C204.762 293.7 203.583 294.188 202.714 295.057C201.846 295.926 201.357 297.104 201.357 298.333C201.357 299.562 201.846 300.74 202.714 301.609C203.583 302.478 204.762 302.966 205.99 302.966H232.629C233.858 302.966 235.036 302.478 235.905 301.609C236.774 300.74 237.262 299.562 237.262 298.333C237.262 297.104 236.774 295.926 235.905 295.057C235.036 294.188 233.858 293.7 232.629 293.7Z" fill="white"/>
<path d="M232.629 321.063H205.99C204.762 321.063 203.583 321.551 202.714 322.42C201.846 323.288 201.357 324.467 201.357 325.696C201.357 326.924 201.846 328.103 202.714 328.971C203.583 329.84 204.762 330.328 205.99 330.328H232.629C233.858 330.328 235.036 329.84 235.905 328.971C236.774 328.103 237.262 326.924 237.262 325.696C237.262 324.467 236.774 323.288 235.905 322.42C235.036 321.551 233.858 321.063 232.629 321.063Z" fill="white"/>
<path d="M232.629 348.425H205.99C204.762 348.425 203.583 348.913 202.714 349.782C201.846 350.651 201.357 351.829 201.357 353.058C201.357 354.287 201.846 355.465 202.714 356.334C203.583 357.203 204.762 357.691 205.99 357.691H232.629C233.858 357.691 235.036 357.203 235.905 356.334C236.774 355.465 237.262 354.287 237.262 353.058C237.262 351.829 236.774 350.651 235.905 349.782C235.036 348.913 233.858 348.425 232.629 348.425Z" fill="white"/>
<path d="M232.629 375.788H205.99C204.762 375.788 203.583 376.276 202.714 377.145C201.846 378.014 201.357 379.192 201.357 380.421C201.357 381.649 201.846 382.828 202.714 383.697C203.583 384.565 204.762 385.053 205.99 385.053H232.629C233.858 385.053 235.036 384.565 235.905 383.697C236.774 382.828 237.262 381.649 237.262 380.421C237.262 379.192 236.774 378.014 235.905 377.145C235.036 376.276 233.858 375.788 232.629 375.788Z" fill="white"/>
<path d="M232.629 403.15H205.99C204.762 403.15 203.583 403.638 202.714 404.507C201.846 405.376 201.357 406.555 201.357 407.783C201.357 409.012 201.846 410.19 202.714 411.059C203.583 411.928 204.762 412.416 205.99 412.416H232.629C233.858 412.416 235.036 411.928 235.905 411.059C236.774 410.19 237.262 409.012 237.262 407.783C237.262 406.555 236.774 405.376 235.905 404.507C235.036 403.638 233.858 403.15 232.629 403.15Z" fill="white"/>
<path d="M232.629 430.513H205.99C204.762 430.513 203.583 431.001 202.714 431.87C201.846 432.739 201.357 433.917 201.357 435.146C201.357 436.374 201.846 437.553 202.714 438.422C203.583 439.29 204.762 439.779 205.99 439.779H232.629C233.858 439.779 235.036 439.29 235.905 438.422C236.774 437.553 237.262 436.374 237.262 435.146C237.262 433.917 236.774 432.739 235.905 431.87C235.036 431.001 233.858 430.513 232.629 430.513Z" fill="white"/>
<path d="M232.629 457.875H205.99C204.762 457.875 203.583 458.364 202.714 459.232C201.846 460.101 201.357 461.28 201.357 462.508C201.357 463.737 201.846 464.915 202.714 465.784C203.583 466.653 204.762 467.141 205.99 467.141H232.629C233.858 467.141 235.036 466.653 235.905 465.784C236.774 464.915 237.262 463.737 237.262 462.508C237.262 461.28 236.774 460.101 235.905 459.232C235.036 458.364 233.858 457.875 232.629 457.875Z" fill="white"/>
<path d="M232.629 485.238H205.99C204.762 485.238 203.583 485.726 202.714 486.595C201.846 487.464 201.357 488.642 201.357 489.871C201.357 491.1 201.846 492.278 202.714 493.147C203.583 494.016 204.762 494.504 205.99 494.504H232.629C233.858 494.504 235.036 494.016 235.905 493.147C236.774 492.278 237.262 491.1 237.262 489.871C237.262 488.642 236.774 487.464 235.905 486.595C235.036 485.726 233.858 485.238 232.629 485.238Z" fill="white"/>
<path d="M232.629 512.601H205.99C204.762 512.601 203.583 513.089 202.714 513.958C201.846 514.826 201.357 516.005 201.357 517.233C201.357 518.462 201.846 519.64 202.714 520.509C203.583 521.378 204.762 521.866 205.99 521.866H232.629C233.858 521.866 235.036 521.378 235.905 520.509C236.774 519.64 237.262 518.462 237.262 517.233C237.262 516.005 236.774 514.826 235.905 513.958C235.036 513.089 233.858 512.601 232.629 512.601Z" fill="white"/>
<path d="M256.951 298.333C256.951 299.562 257.439 300.74 258.308 301.609C259.177 302.478 260.355 302.966 261.584 302.966H288.223C289.451 302.966 290.63 302.478 291.499 301.609C292.367 300.74 292.855 299.562 292.855 298.333C292.855 297.104 292.367 295.926 291.499 295.057C290.63 294.188 289.451 293.7 288.223 293.7H261.584C260.355 293.7 259.177 294.188 258.308 295.057C257.439 295.926 256.951 297.104 256.951 298.333Z" fill="white"/>
<path d="M230.892 275.169H257.53C258.759 275.169 259.937 274.681 260.806 273.812C261.675 272.943 262.163 271.765 262.163 270.536C262.163 269.307 261.675 268.129 260.806 267.26C259.937 266.391 258.759 265.903 257.53 265.903H230.892C229.663 265.903 228.485 266.391 227.616 267.26C226.747 268.129 226.259 269.307 226.259 270.536C226.259 271.765 226.747 272.943 227.616 273.812C228.485 274.681 229.663 275.169 230.892 275.169Z" fill="white"/>
<path d="M405.201 268.22H416.783C418.012 268.22 419.19 267.732 420.059 266.863C420.928 265.994 421.416 264.816 421.416 263.587C421.416 262.358 420.928 261.18 420.059 260.311C419.19 259.442 418.012 258.954 416.783 258.954H405.201C403.972 258.954 402.794 259.442 401.925 260.311C401.056 261.18 400.568 262.358 400.568 263.587C400.568 264.816 401.056 265.994 401.925 266.863C402.794 267.732 403.972 268.22 405.201 268.22Z" fill="white"/>
<path d="M441.105 268.22H452.688C453.916 268.22 455.095 267.732 455.963 266.863C456.832 265.994 457.32 264.816 457.32 263.587C457.32 262.358 456.832 261.18 455.963 260.311C455.095 259.442 453.916 258.954 452.688 258.954H441.105C439.877 258.954 438.698 259.442 437.83 260.311C436.961 261.18 436.473 262.358 436.473 263.587C436.473 264.816 436.961 265.994 437.83 266.863C438.698 267.732 439.877 268.22 441.105 268.22Z" fill="white"/>
<path d="M477.01 268.22H488.592C489.82 268.22 490.999 267.732 491.868 266.863C492.737 265.994 493.225 264.816 493.225 263.587C493.225 262.358 492.737 261.18 491.868 260.311C490.999 259.442 489.82 258.954 488.592 258.954H477.01C475.781 258.954 474.603 259.442 473.734 260.311C472.865 261.18 472.377 262.358 472.377 263.587C472.377 264.816 472.865 265.994 473.734 266.863C474.603 267.732 475.781 268.22 477.01 268.22Z" fill="white"/>
<path d="M405.201 296.402H416.783C418.012 296.402 419.19 295.914 420.059 295.045C420.928 294.177 421.416 292.998 421.416 291.769C421.416 290.541 420.928 289.362 420.059 288.494C419.19 287.625 418.012 287.137 416.783 287.137H405.201C403.972 287.137 402.794 287.625 401.925 288.494C401.056 289.362 400.568 290.541 400.568 291.769C400.568 292.998 401.056 294.177 401.925 295.045C402.794 295.914 403.972 296.402 405.201 296.402Z" fill="white"/>
<path d="M441.105 296.402H452.688C453.916 296.402 455.095 295.914 455.963 295.045C456.832 294.177 457.32 292.998 457.32 291.769C457.32 290.541 456.832 289.362 455.963 288.494C455.095 287.625 453.916 287.137 452.688 287.137H441.105C439.877 287.137 438.698 287.625 437.83 288.494C436.961 289.362 436.473 290.541 436.473 291.769C436.473 292.998 436.961 294.177 437.83 295.045C438.698 295.914 439.877 296.402 441.105 296.402Z" fill="white"/>
<path d="M477.01 296.402H488.592C489.82 296.402 490.999 295.914 491.868 295.045C492.737 294.177 493.225 292.998 493.225 291.769C493.225 290.541 492.737 289.362 491.868 288.494C490.999 287.625 489.82 287.137 488.592 287.137H477.01C475.781 287.137 474.603 287.625 473.734 288.494C472.865 289.362 472.377 290.541 472.377 291.769C472.377 292.998 472.865 294.177 473.734 295.045C474.603 295.914 475.781 296.402 477.01 296.402Z" fill="white"/>
<path d="M405.201 324.586H416.783C418.012 324.586 419.19 324.098 420.059 323.229C420.928 322.36 421.416 321.182 421.416 319.953C421.416 318.724 420.928 317.546 420.059 316.677C419.19 315.808 418.012 315.32 416.783 315.32H405.201C403.972 315.32 402.794 315.808 401.925 316.677C401.056 317.546 400.568 318.724 400.568 319.953C400.568 321.182 401.056 322.36 401.925 323.229C402.794 324.098 403.972 324.586 405.201 324.586Z" fill="white"/>
<path d="M441.105 324.586H452.688C453.916 324.586 455.095 324.098 455.963 323.229C456.832 322.36 457.32 321.182 457.32 319.953C457.32 318.724 456.832 317.546 455.963 316.677C455.095 315.808 453.916 315.32 452.688 315.32H441.105C439.877 315.32 438.698 315.808 437.83 316.677C436.961 317.546 436.473 318.724 436.473 319.953C436.473 321.182 436.961 322.36 437.83 323.229C438.698 324.098 439.877 324.586 441.105 324.586Z" fill="white"/>
<path d="M477.01 324.586H488.592C489.82 324.586 490.999 324.098 491.868 323.229C492.737 322.36 493.225 321.182 493.225 319.953C493.225 318.724 492.737 317.546 491.868 316.677C490.999 315.808 489.82 315.32 488.592 315.32H477.01C475.781 315.32 474.603 315.808 473.734 316.677C472.865 317.546 472.377 318.724 472.377 319.953C472.377 321.182 472.865 322.36 473.734 323.229C474.603 324.098 475.781 324.586 477.01 324.586Z" fill="white"/>
<path d="M416.783 352.769C418.012 352.769 419.19 352.28 420.059 351.412C420.928 350.543 421.416 349.364 421.416 348.136C421.416 346.907 420.928 345.729 420.059 344.86C419.19 343.991 418.012 343.503 416.783 343.503H405.201C403.972 343.503 402.794 343.991 401.925 344.86C401.056 345.729 400.568 346.907 400.568 348.136C400.568 349.364 401.056 350.543 401.925 351.412C402.794 352.28 403.972 352.769 405.201 352.769H416.783Z" fill="white"/>
<path d="M441.105 352.769H452.688C453.916 352.769 455.095 352.28 455.963 351.412C456.832 350.543 457.32 349.364 457.32 348.136C457.32 346.907 456.832 345.729 455.963 344.86C455.095 343.991 453.916 343.503 452.688 343.503H441.105C439.877 343.503 438.698 343.991 437.83 344.86C436.961 345.729 436.473 346.907 436.473 348.136C436.473 349.364 436.961 350.543 437.83 351.412C438.698 352.28 439.877 352.769 441.105 352.769Z" fill="white"/>
<path d="M477.01 352.769H488.592C489.82 352.769 490.999 352.28 491.868 351.412C492.737 350.543 493.225 349.364 493.225 348.136C493.225 346.907 492.737 345.729 491.868 344.86C490.999 343.991 489.82 343.503 488.592 343.503H477.01C475.781 343.503 474.603 343.991 473.734 344.86C472.865 345.729 472.377 346.907 472.377 348.136C472.377 349.364 472.865 350.543 473.734 351.412C474.603 352.28 475.781 352.769 477.01 352.769Z" fill="white"/>
<path d="M441.105 380.951H452.688C453.916 380.951 455.095 380.463 455.963 379.594C456.832 378.725 457.32 377.547 457.32 376.318C457.32 375.09 456.832 373.911 455.963 373.042C455.095 372.174 453.916 371.685 452.688 371.685H441.105C439.877 371.685 438.698 372.174 437.83 373.042C436.961 373.911 436.473 375.09 436.473 376.318C436.473 377.547 436.961 378.725 437.83 379.594C438.698 380.463 439.877 380.951 441.105 380.951Z" fill="white"/>
<path d="M477.01 380.951H488.592C489.82 380.951 490.999 380.463 491.868 379.594C492.737 378.725 493.225 377.547 493.225 376.318C493.225 375.09 492.737 373.911 491.868 373.042C490.999 372.174 489.82 371.685 488.592 371.685H477.01C475.781 371.685 474.603 372.174 473.734 373.042C472.865 373.911 472.377 375.09 472.377 376.318C472.377 377.547 472.865 378.725 473.734 379.594C474.603 380.463 475.781 380.951 477.01 380.951Z" fill="white"/>
<path d="M441.105 409.135H452.688C453.916 409.135 455.095 408.647 455.963 407.778C456.832 406.909 457.32 405.731 457.32 404.502C457.32 403.273 456.832 402.095 455.963 401.226C455.095 400.357 453.916 399.869 452.688 399.869H441.105C439.877 399.869 438.698 400.357 437.83 401.226C436.961 402.095 436.473 403.273 436.473 404.502C436.473 405.731 436.961 406.909 437.83 407.778C438.698 408.647 439.877 409.135 441.105 409.135Z" fill="white"/>
<path d="M477.01 409.135H488.592C489.82 409.135 490.999 408.647 491.868 407.778C492.737 406.909 493.225 405.731 493.225 404.502C493.225 403.273 492.737 402.095 491.868 401.226C490.999 400.357 489.82 399.869 488.592 399.869H477.01C475.781 399.869 474.603 400.357 473.734 401.226C472.865 402.095 472.377 403.273 472.377 404.502C472.377 405.731 472.865 406.909 473.734 407.778C474.603 408.647 475.781 409.135 477.01 409.135Z" fill="white"/>
<path d="M441.105 437.317H452.688C453.916 437.317 455.095 436.829 455.963 435.96C456.832 435.092 457.32 433.913 457.32 432.685C457.32 431.456 456.832 430.277 455.963 429.409C455.095 428.54 453.916 428.052 452.688 428.052H441.105C439.877 428.052 438.698 428.54 437.83 429.409C436.961 430.277 436.473 431.456 436.473 432.685C436.473 433.913 436.961 435.092 437.83 435.96C438.698 436.829 439.877 437.317 441.105 437.317Z" fill="white"/>
<path d="M477.01 437.317H488.592C489.82 437.317 490.999 436.829 491.868 435.96C492.737 435.092 493.225 433.913 493.225 432.685C493.225 431.456 492.737 430.277 491.868 429.409C490.999 428.54 489.82 428.052 488.592 428.052H477.01C475.781 428.052 474.603 428.54 473.734 429.409C472.865 430.277 472.377 431.456 472.377 432.685C472.377 433.913 472.865 435.092 473.734 435.96C474.603 436.829 475.781 437.317 477.01 437.317Z" fill="white"/>
<path d="M441.105 465.5H452.688C453.916 465.5 455.095 465.012 455.963 464.143C456.832 463.274 457.32 462.096 457.32 460.867C457.32 459.638 456.832 458.46 455.963 457.591C455.095 456.722 453.916 456.234 452.688 456.234H441.105C439.877 456.234 438.698 456.722 437.83 457.591C436.961 458.46 436.473 459.638 436.473 460.867C436.473 462.096 436.961 463.274 437.83 464.143C438.698 465.012 439.877 465.5 441.105 465.5Z" fill="white"/>
<path d="M477.01 465.5H488.592C489.82 465.5 490.999 465.012 491.868 464.143C492.737 463.274 493.225 462.096 493.225 460.867C493.225 459.638 492.737 458.46 491.868 457.591C490.999 456.722 489.82 456.234 488.592 456.234H477.01C475.781 456.234 474.603 456.722 473.734 457.591C472.865 458.46 472.377 459.638 472.377 460.867C472.377 462.096 472.865 463.274 473.734 464.143C474.603 465.012 475.781 465.5 477.01 465.5Z" fill="white"/>
<path d="M441.105 493.684H452.688C453.916 493.684 455.095 493.196 455.963 492.327C456.832 491.458 457.32 490.28 457.32 489.051C457.32 487.822 456.832 486.644 455.963 485.775C455.095 484.906 453.916 484.418 452.688 484.418H441.105C439.877 484.418 438.698 484.906 437.83 485.775C436.961 486.644 436.473 487.822 436.473 489.051C436.473 490.28 436.961 491.458 437.83 492.327C438.698 493.196 439.877 493.684 441.105 493.684Z" fill="white"/>
<path d="M477.01 493.684H488.592C489.82 493.684 490.999 493.196 491.868 492.327C492.737 491.458 493.225 490.28 493.225 489.051C493.225 487.822 492.737 486.644 491.868 485.775C490.999 484.906 489.82 484.418 488.592 484.418H477.01C475.781 484.418 474.603 484.906 473.734 485.775C472.865 486.644 472.377 487.822 472.377 489.051C472.377 490.28 472.865 491.458 473.734 492.327C474.603 493.196 475.781 493.684 477.01 493.684Z" fill="white"/>
<path d="M441.105 521.866H452.688C453.916 521.866 455.095 521.378 455.963 520.509C456.832 519.64 457.32 518.462 457.32 517.233C457.32 516.005 456.832 514.826 455.963 513.958C455.095 513.089 453.916 512.601 452.688 512.601H441.105C439.877 512.601 438.698 513.089 437.83 513.958C436.961 514.826 436.473 516.005 436.473 517.233C436.473 518.462 436.961 519.64 437.83 520.509C438.698 521.378 439.877 521.866 441.105 521.866Z" fill="white"/>
<path d="M477.01 521.866H488.592C489.82 521.866 490.999 521.378 491.868 520.509C492.737 519.64 493.225 518.462 493.225 517.233C493.225 516.005 492.737 514.826 491.868 513.958C490.999 513.089 489.82 512.601 488.592 512.601H477.01C475.781 512.601 474.603 513.089 473.734 513.958C472.865 514.826 472.377 516.005 472.377 517.233C472.377 518.462 472.865 519.64 473.734 520.509C474.603 521.378 475.781 521.866 477.01 521.866Z" fill="white"/>
<path d="M309.649 390.989C315.087 390.989 319.494 386.582 319.494 381.145C319.494 375.707 315.087 371.3 309.649 371.3C304.212 371.3 299.805 375.707 299.805 381.145C299.805 386.582 304.212 390.989 309.649 390.989Z" fill="white"/>
<path d="M531.445 543.872H517.547V233.474C517.547 232.245 517.059 231.067 516.19 230.198C515.321 229.329 514.143 228.841 512.914 228.841H494.383V204.519C494.383 203.29 493.895 202.111 493.026 201.243C492.157 200.374 490.979 199.886 489.75 199.886H468.902V175.563C468.902 174.335 468.414 173.156 467.545 172.288C466.677 171.419 465.498 170.931 464.27 170.931H451.529V116.495C451.529 115.266 451.041 114.088 450.172 113.219C449.304 112.35 448.125 111.862 446.896 111.862C445.668 111.862 444.489 112.35 443.621 113.219C442.752 114.088 442.264 115.266 442.264 116.495V170.931H429.523C428.295 170.931 427.116 171.419 426.248 172.288C425.379 173.156 424.891 174.335 424.891 175.563V199.886H404.043C402.814 199.886 401.636 200.374 400.767 201.243C399.898 202.111 399.41 203.29 399.41 204.519V228.841H380.879C379.65 228.841 378.472 229.329 377.603 230.198C376.734 231.067 376.246 232.245 376.246 233.474V336.11L357.585 314.958C357.15 314.465 356.616 314.07 356.017 313.8C355.418 313.529 354.768 313.39 354.111 313.39H317.178V285.593C317.178 284.92 317.031 284.255 316.748 283.645C316.466 283.034 316.053 282.493 315.54 282.058L248.844 225.536V175.563C248.844 174.335 248.356 173.156 247.487 172.288C246.618 171.419 245.44 170.931 244.211 170.931C242.982 170.931 241.804 171.419 240.935 172.288C240.066 173.156 239.578 174.335 239.578 175.563V225.536L172.882 282.057C172.368 282.492 171.956 283.034 171.673 283.644C171.39 284.255 171.244 284.92 171.244 285.593V543.872H151.555C150.326 543.872 149.148 544.36 148.279 545.229C147.41 546.098 146.922 547.276 146.922 548.505C146.922 549.734 147.41 550.912 148.279 551.781C149.148 552.65 150.326 553.138 151.555 553.138H531.445C532.674 553.138 533.852 552.65 534.721 551.781C535.59 550.912 536.078 549.734 536.078 548.505C536.078 547.276 535.59 546.098 534.721 545.229C533.852 544.36 532.674 543.872 531.445 543.872ZM434.156 180.196H459.637V199.886H434.156V180.196ZM408.676 209.151H485.117V228.841H408.676V209.151ZM385.512 238.106H508.281V543.872H409.834V521.866H416.783C418.012 521.866 419.19 521.378 420.059 520.509C420.928 519.64 421.416 518.462 421.416 517.233C421.416 516.005 420.928 514.826 420.059 513.958C419.19 513.089 418.012 512.601 416.783 512.601H409.834V493.684H416.783C418.012 493.684 419.19 493.196 420.059 492.327C420.928 491.458 421.416 490.28 421.416 489.051C421.416 487.822 420.928 486.644 420.059 485.775C419.19 484.906 418.012 484.418 416.783 484.418H409.834V465.5H416.783C418.012 465.5 419.19 465.012 420.059 464.143C420.928 463.274 421.416 462.096 421.416 460.867C421.416 459.638 420.928 458.46 420.059 457.591C419.19 456.722 418.012 456.234 416.783 456.234H409.834V437.317H416.783C418.012 437.317 419.19 436.829 420.059 435.96C420.928 435.092 421.416 433.913 421.416 432.685C421.416 431.456 420.928 430.277 420.059 429.409C419.19 428.54 418.012 428.052 416.783 428.052H409.834V409.135H416.783C418.012 409.135 419.19 408.647 420.059 407.778C420.928 406.909 421.416 405.731 421.416 404.502C421.416 403.273 420.928 402.095 420.059 401.226C419.19 400.357 418.012 399.869 416.783 399.869H409.834V380.951H416.783C418.012 380.951 419.19 380.463 420.059 379.594C420.928 378.725 421.416 377.547 421.416 376.318C421.416 375.09 420.928 373.911 420.059 373.042C419.19 372.174 418.012 371.685 416.783 371.685H407.633L385.512 346.612V238.106ZM180.51 287.74L244.211 233.755L307.912 287.74V313.39H277.799C276.57 313.39 275.392 313.878 274.523 314.747C273.654 315.615 273.166 316.794 273.166 318.022V321.063H261.584C260.355 321.063 259.177 321.551 258.308 322.42C257.439 323.288 256.951 324.467 256.951 325.696C256.951 326.924 257.439 328.103 258.308 328.971C259.177 329.84 260.355 330.328 261.584 330.328H273.166V348.425H261.584C260.355 348.425 259.177 348.913 258.308 349.782C257.439 350.651 256.951 351.829 256.951 353.058C256.951 354.287 257.439 355.465 258.308 356.334C259.177 357.203 260.355 357.691 261.584 357.691H273.166V375.788H261.584C260.355 375.788 259.177 376.276 258.308 377.145C257.439 378.014 256.951 379.192 256.951 380.421C256.951 381.649 257.439 382.828 258.308 383.697C259.177 384.565 260.355 385.053 261.584 385.053H273.166V403.15H261.584C260.355 403.15 259.177 403.638 258.308 404.507C257.439 405.376 256.951 406.555 256.951 407.783C256.951 409.012 257.439 410.19 258.308 411.059C259.177 411.928 260.355 412.416 261.584 412.416H273.166V430.513H261.584C260.355 430.513 259.177 431.001 258.308 431.87C257.439 432.739 256.951 433.917 256.951 435.146C256.951 436.374 257.439 437.553 258.308 438.422C259.177 439.29 260.355 439.779 261.584 439.779H273.166V457.875H261.584C260.355 457.875 259.177 458.364 258.308 459.232C257.439 460.101 256.951 461.28 256.951 462.508C256.951 463.737 257.439 464.915 258.308 465.784C259.177 466.653 260.355 467.141 261.584 467.141H273.166V485.238H261.584C260.355 485.238 259.177 485.726 258.308 486.595C257.439 487.464 256.951 488.642 256.951 489.871C256.951 491.1 257.439 492.278 258.308 493.147C259.177 494.016 260.355 494.504 261.584 494.504H273.166V512.601H261.584C260.355 512.601 259.177 513.089 258.308 513.958C257.439 514.826 256.951 516.005 256.951 517.233C256.951 518.462 257.439 519.64 258.308 520.509C259.177 521.378 260.355 521.866 261.584 521.866H273.166V543.872H180.51V287.74ZM282.432 345.819H297.577C316.045 345.813 333.925 352.309 348.08 364.169C362.236 376.03 371.763 392.496 374.991 410.679H305.596C304.367 410.679 303.189 411.167 302.32 412.036C301.451 412.904 300.963 414.083 300.963 415.312C300.963 416.54 301.451 417.719 302.32 418.587C303.189 419.456 304.367 419.944 305.596 419.944H376.102C376.192 421.45 376.246 422.968 376.246 424.488V436.159H305.596C304.367 436.159 303.189 436.647 302.32 437.516C301.451 438.385 300.963 439.563 300.963 440.792C300.963 442.021 301.451 443.199 302.32 444.068C303.189 444.937 304.367 445.425 305.596 445.425H376.246V461.64H305.596C304.367 461.64 303.189 462.128 302.32 462.997C301.451 463.865 300.963 465.044 300.963 466.272C300.963 467.501 301.451 468.68 302.32 469.548C303.189 470.417 304.367 470.905 305.596 470.905H376.246V487.12H305.596C304.367 487.12 303.189 487.608 302.32 488.477C301.451 489.346 300.963 490.524 300.963 491.753C300.963 492.982 301.451 494.16 302.32 495.029C303.189 495.898 304.367 496.386 305.596 496.386H376.246V512.601H305.596C304.367 512.601 303.189 513.089 302.32 513.958C301.451 514.826 300.963 516.005 300.963 517.233C300.963 518.462 301.451 519.64 302.32 520.509C303.189 521.378 304.367 521.866 305.596 521.866H376.246V543.872H282.432V345.819ZM385.512 543.872V424.488C385.512 421.997 385.377 419.519 385.164 417.055C385.457 416.342 385.566 415.567 385.481 414.801C385.396 414.035 385.119 413.303 384.677 412.672C381.834 391.59 371.439 372.256 355.422 358.258C339.404 344.26 318.852 336.548 297.58 336.554H282.432V322.655H352.02L400.568 377.684V543.872H385.512Z" fill="white"/>
</svg>
