<svg width="664" height="664" viewBox="0 0 664 664" fill="none" xmlns="http://www.w3.org/2000/svg">
<circle cx="332" cy="332" r="332" fill="#F0906E"/>
<g clip-path="url(#clip0_4_461)">
<path d="M531.48 526.36H482.743V436.176H488.349C491.18 436.176 493.469 433.887 493.469 431.056V400.495C493.469 397.664 491.18 395.375 488.349 395.375H471.11C471.125 395.221 471.197 395.093 471.197 394.935V196.289H476.839C479.67 196.289 481.959 194 481.959 191.169V156.225C481.959 153.394 479.67 151.105 476.839 151.105H471.197V132.12C471.197 129.289 468.908 127 466.077 127H331.314C328.483 127 326.194 129.289 326.194 132.12V151.105H320.552C317.721 151.105 315.432 153.394 315.432 156.225V191.169C315.432 194 317.721 196.289 320.552 196.289H327.162V211.992H247.607V194.21C247.607 191.379 245.318 189.09 242.487 189.09H214.803C211.972 189.09 209.683 191.379 209.683 194.21V211.992H186.761C183.93 211.992 181.641 214.281 181.641 217.112V252.056C181.641 254.887 183.93 257.176 186.761 257.176H192.403V526.355H132.12C129.289 526.355 127 528.644 127 531.475C127 534.306 129.289 536.6 132.12 536.6H531.48C534.311 536.6 536.6 534.311 536.6 531.48C536.6 528.649 534.311 526.36 531.48 526.36ZM483.229 405.615V425.936H295.428V405.615H483.229ZM343.043 211.997H337.406V196.289H460.962V394.935C460.962 395.094 461.039 395.222 461.049 395.375H337.314C337.329 395.221 337.401 395.093 337.401 394.935V257.181H343.043C345.874 257.181 348.163 254.892 348.163 252.061V217.117C348.164 214.286 345.875 211.997 343.043 211.997ZM336.434 137.24H460.958V151.105H336.434V137.24ZM325.676 186.049V161.345H471.719V186.049H325.676ZM219.918 199.335H237.362V211.997H219.918V199.335ZM191.881 246.941V222.237H337.924V246.941H191.881ZM296.037 526.36H202.638V257.181H327.167V394.935C327.167 395.094 327.244 395.222 327.254 395.375H290.308C287.477 395.375 285.188 397.664 285.188 400.495V431.056C285.188 433.887 287.477 436.176 290.308 436.176H296.037V526.36ZM365.346 526.36H339.326V478.544H365.346V526.36ZM472.503 526.36H375.581V473.424C375.581 470.593 373.292 468.304 370.461 468.304H334.201C331.37 468.304 329.081 470.593 329.081 473.424V526.36H306.277V436.176H472.503V526.36Z" fill="white"/>
<path d="M363.334 284.624C360.503 284.624 358.214 286.913 358.214 289.744V312.984C358.214 315.815 360.503 318.104 363.334 318.104C366.165 318.104 368.454 315.815 368.454 312.984V289.744C368.454 286.913 366.165 284.624 363.334 284.624Z" fill="white"/>
<path d="M399.594 284.624C396.763 284.624 394.474 286.913 394.474 289.744V312.984C394.474 315.815 396.763 318.104 399.594 318.104C402.425 318.104 404.714 315.815 404.714 312.984V289.744C404.714 286.913 402.425 284.624 399.594 284.624Z" fill="white"/>
<path d="M435.854 284.624C433.023 284.624 430.734 286.913 430.734 289.744V312.984C430.734 315.815 433.028 318.104 435.854 318.104C438.685 318.104 440.974 315.815 440.974 312.984V289.744C440.974 286.913 438.685 284.624 435.854 284.624Z" fill="white"/>
<path d="M363.334 345.849C360.503 345.849 358.214 348.138 358.214 350.969V374.214C358.214 377.045 360.503 379.334 363.334 379.334C366.165 379.334 368.454 377.045 368.454 374.214V350.969C368.454 348.138 366.165 345.849 363.334 345.849Z" fill="white"/>
<path d="M399.594 345.849C396.763 345.849 394.474 348.138 394.474 350.969V374.214C394.474 377.045 396.763 379.334 399.594 379.334C402.425 379.334 404.714 377.045 404.714 374.214V350.969C404.714 348.138 402.425 345.849 399.594 345.849Z" fill="white"/>
<path d="M435.854 345.849C433.023 345.849 430.734 348.138 430.734 350.969V374.214C430.734 377.045 433.028 379.334 435.854 379.334C438.685 379.334 440.974 377.045 440.974 374.214V350.969C440.974 348.138 438.685 345.849 435.854 345.849Z" fill="white"/>
<path d="M363.334 223.717C360.503 223.717 358.214 226.006 358.214 228.837V252.082C358.214 254.913 360.503 257.202 363.334 257.202C366.165 257.202 368.454 254.913 368.454 252.082V228.837C368.454 226.005 366.165 223.717 363.334 223.717Z" fill="white"/>
<path d="M399.594 223.717C396.763 223.717 394.474 226.006 394.474 228.837V252.082C394.474 254.913 396.763 257.202 399.594 257.202C402.425 257.202 404.714 254.913 404.714 252.082V228.837C404.714 226.005 402.425 223.717 399.594 223.717Z" fill="white"/>
<path d="M435.854 223.717C433.023 223.717 430.734 226.006 430.734 228.837V252.082C430.734 254.913 433.028 257.202 435.854 257.202C438.685 257.202 440.974 254.913 440.974 252.082V228.837C440.974 226.005 438.685 223.717 435.854 223.717Z" fill="white"/>
<path d="M228.647 284.624C225.816 284.624 223.527 286.913 223.527 289.744V312.984C223.527 315.815 225.816 318.104 228.647 318.104C231.478 318.104 233.767 315.815 233.767 312.984V289.744C233.767 286.918 231.474 284.624 228.647 284.624Z" fill="white"/>
<path d="M264.902 284.624C262.071 284.624 259.782 286.913 259.782 289.744V312.984C259.782 315.815 262.071 318.104 264.902 318.104C267.733 318.104 270.022 315.815 270.022 312.984V289.744C270.022 286.918 267.728 284.624 264.902 284.624Z" fill="white"/>
<path d="M301.162 284.624C298.331 284.624 296.042 286.913 296.042 289.744V312.984C296.042 315.815 298.331 318.104 301.162 318.104C303.993 318.104 306.282 315.815 306.282 312.984V289.744C306.282 286.913 303.993 284.624 301.162 284.624Z" fill="white"/>
<path d="M228.647 345.849C225.816 345.849 223.527 348.138 223.527 350.969V374.214C223.527 377.045 225.816 379.334 228.647 379.334C231.478 379.334 233.767 377.045 233.767 374.214V350.969C233.767 348.143 231.474 345.849 228.647 345.849Z" fill="white"/>
<path d="M264.902 345.849C262.071 345.849 259.782 348.138 259.782 350.969V374.214C259.782 377.045 262.071 379.334 264.902 379.334C267.733 379.334 270.022 377.045 270.022 374.214V350.969C270.022 348.143 267.728 345.849 264.902 345.849Z" fill="white"/>
<path d="M301.162 345.849C298.331 345.849 296.042 348.138 296.042 350.969V374.214C296.042 377.045 298.331 379.334 301.162 379.334C303.993 379.334 306.282 377.045 306.282 374.214V350.969C306.282 348.138 303.993 345.849 301.162 345.849Z" fill="white"/>
<path d="M228.647 407.074C225.816 407.074 223.527 409.363 223.527 412.194V435.439C223.527 438.27 225.816 440.559 228.647 440.559C231.478 440.559 233.767 438.27 233.767 435.439V412.194C233.767 409.368 231.474 407.074 228.647 407.074Z" fill="white"/>
<path d="M264.902 407.074C262.071 407.074 259.782 409.363 259.782 412.194V435.439C259.782 438.27 262.071 440.559 264.902 440.559C267.733 440.559 270.022 438.27 270.022 435.439V412.194C270.022 409.368 267.728 407.074 264.902 407.074Z" fill="white"/>
<path d="M228.647 468.304C225.816 468.304 223.527 470.593 223.527 473.424V496.664C223.527 499.495 225.816 501.784 228.647 501.784C231.478 501.784 233.767 499.495 233.767 496.664V473.424C233.767 470.598 231.474 468.304 228.647 468.304Z" fill="white"/>
<path d="M264.902 468.304C262.071 468.304 259.782 470.593 259.782 473.424V496.664C259.782 499.495 262.071 501.784 264.902 501.784C267.733 501.784 270.022 499.495 270.022 496.664V473.424C270.022 470.598 267.728 468.304 264.902 468.304Z" fill="white"/>
<path d="M405.917 468.304C403.086 468.304 400.797 470.593 400.797 473.424V496.664C400.797 499.495 403.086 501.784 405.917 501.784C408.748 501.784 411.037 499.495 411.037 496.664V473.424C411.037 470.593 408.748 468.304 405.917 468.304Z" fill="white"/>
<path d="M442.177 468.304C439.346 468.304 437.057 470.593 437.057 473.424V496.664C437.057 499.495 439.346 501.784 442.177 501.784C445.008 501.784 447.297 499.495 447.297 496.664V473.424C447.297 470.593 445.008 468.304 442.177 468.304Z" fill="white"/>
</g>
<defs>
<clipPath id="clip0_4_461">
<rect width="409.6" height="409.6" fill="white" transform="translate(127 127)"/>
</clipPath>
</defs>
</svg>
