<svg width="664" height="664" viewBox="0 0 664 664" fill="none" xmlns="http://www.w3.org/2000/svg">
<circle cx="332" cy="332" r="332" fill="#F0906E"/>
<path d="M443.236 238.2C426.489 237.393 411.121 246.709 404.109 262.03L390.892 291.815C389.304 295.063 387.519 297.29 385.827 298.819V163.866C386.042 146.835 366.807 134.059 351.531 142.365C351.121 108.603 304.685 108.487 304.253 142.365C288.993 134.08 269.75 146.806 269.958 163.866V183.489C254.722 175.215 235.443 187.928 235.664 204.989V233.378C235.664 241.771 248.647 241.771 248.647 233.378V204.989C248.647 199.184 253.526 193.712 259.509 193.91C265.271 194.019 269.958 198.787 269.958 204.539V275.088C269.958 283.481 282.942 283.481 282.942 275.088V163.866C282.942 158.049 287.822 152.611 293.804 152.787C299.566 152.895 304.254 157.663 304.254 163.416V258.753C304.254 267.146 317.237 267.146 317.237 258.753V140.456C317.237 134.703 321.925 129.934 327.687 129.827C333.669 129.676 338.549 135.071 338.549 140.905V258.754C338.549 267.147 351.532 267.147 351.532 258.754V163.417C351.532 157.664 356.221 152.896 361.982 152.788C367.964 152.611 372.844 158.05 372.844 163.866V303.359C349.609 309.784 328.665 323.656 321.475 358.155C319.991 366.18 332.692 368.896 334.243 360.518C341.808 319.632 378.924 315.263 380.528 315.095C390.465 314.092 398.782 305.948 402.714 297.186L415.947 267.365C420.705 256.968 431.169 250.604 442.606 251.169C444.839 251.641 445.663 252.982 445.076 255.19L388.04 383.374C377.926 404.514 362.308 407.244 361.712 407.34C358.503 407.788 356.115 410.531 356.115 413.77V441.668H282.943V413.77C282.943 411.703 281.959 409.76 280.293 408.537C260.478 393.993 248.649 370.683 248.649 346.182V267.162C248.649 258.769 235.666 258.769 235.666 267.162V346.182C235.666 373.69 248.426 399.91 269.96 416.982V443.208C264.868 445.692 261.352 450.922 261.352 456.959V475.313C253.545 475.989 247.398 482.567 247.398 490.556V553.508C247.398 557.094 250.305 560 253.89 560C257.475 560 260.381 557.094 260.381 553.508V490.556C260.381 489.278 261.412 488.238 262.68 488.238H323.003C331.397 488.238 331.397 475.255 323.003 475.255H274.336V456.958C274.336 455.685 275.371 454.65 276.644 454.65H362.774C364.046 454.65 365.081 455.685 365.081 456.958V475.255H357.33C348.937 475.255 348.937 488.238 357.33 488.238H376.737C378.005 488.238 379.035 489.278 379.035 490.556V553.508C379.286 562.06 391.75 562.112 392.019 553.508V490.556C392.019 482.567 385.872 475.988 378.064 475.313V456.959C378.064 450.782 374.382 445.448 369.099 443.038V418.688C382.891 413.72 393.914 401.912 399.867 388.732L456.939 260.468C461.34 250.57 454.115 238.733 443.236 238.2Z" fill="white"/>
<path d="M168.933 229.927L184.674 239.003C187.631 240.709 191.833 239.582 193.54 236.622C195.331 233.516 194.265 229.546 191.159 227.756L175.417 218.681C167.859 214.624 161.628 225.41 168.933 229.927Z" fill="white"/>
<path d="M179.104 293.468C179.099 289.883 176.188 286.981 172.604 286.986L154.425 287.011C145.85 287.286 145.86 299.742 154.444 299.994L172.622 299.969C176.206 299.964 179.109 297.053 179.104 293.468Z" fill="white"/>
<path d="M186.11 347.514L170.365 356.635C167.263 358.432 166.205 362.403 168.002 365.506C169.715 368.462 173.918 369.581 176.873 367.868L192.618 358.748C199.906 354.222 193.672 343.443 186.11 347.514Z" fill="white"/>
<path d="M494.067 356.629L478.326 347.553C475.222 345.763 471.25 346.827 469.46 349.935C467.669 353.04 468.735 357.01 471.841 358.8L487.582 367.876C495.169 371.7 501.387 361.255 494.067 356.629Z" fill="white"/>
<path d="M508.565 286.56C508.564 286.555 490.382 286.59 490.378 286.586C486.792 286.591 483.89 289.502 483.896 293.087C483.9 296.672 486.812 299.575 490.397 299.569L508.575 299.543C517.145 299.27 517.142 286.824 508.565 286.56Z" fill="white"/>
</svg>
