<svg width="664" height="664" viewBox="0 0 664 664" fill="none" xmlns="http://www.w3.org/2000/svg">
<circle cx="332" cy="332" r="332" fill="#F0906E"/>
<g clip-path="url(#clip0_4_467)">
<path d="M374.415 342.986C374.415 332.13 370.002 321.927 361.989 314.251C345.449 298.408 318.536 298.408 301.997 314.251C285.454 330.095 285.454 355.875 301.997 371.718C310.265 379.641 321.128 383.601 331.991 383.601C342.858 383.601 353.721 379.641 361.989 371.718C370.002 364.045 374.415 353.839 374.415 342.986ZM309.868 364.175C303.959 358.516 300.704 350.99 300.704 342.983C300.704 334.98 303.959 327.454 309.868 321.791C315.968 315.948 323.978 313.027 331.991 313.027C340.005 313.027 348.018 315.951 354.115 321.791C360.026 327.454 363.279 334.98 363.279 342.983C363.279 350.99 360.026 358.516 354.115 364.175C341.915 375.864 322.068 375.864 309.868 364.175Z" fill="white"/>
<path d="M517.982 222.229C513.106 211.451 504.223 199.582 492.971 188.804C481.722 178.029 469.328 169.52 458.079 164.849C445.442 159.6 435.211 159.731 429.183 165.171C429.099 165.238 429.018 165.307 428.94 165.379C428.914 165.404 428.882 165.427 428.856 165.452C428.818 165.49 428.786 165.532 428.745 165.568C428.708 165.61 428.664 165.646 428.627 165.688L427.939 166.432C427.893 166.485 427.841 166.532 427.795 166.587L393.28 203.898C391.242 206.1 391.453 209.471 393.755 211.424C394.814 212.323 396.133 212.765 397.443 212.765C398.983 212.765 400.513 212.16 401.612 210.971L425.313 185.349C425.93 187.71 426.809 190.198 427.948 192.795C427.957 192.817 427.963 192.839 427.974 192.862C427.989 192.898 428.006 192.931 428.021 192.967C428.093 193.128 428.154 193.284 428.227 193.445C428.432 193.897 428.653 194.353 428.87 194.808C428.899 194.864 428.922 194.919 428.951 194.975C429.25 195.597 429.566 196.222 429.891 196.849C429.931 196.924 429.969 196.999 430.007 197.074C430.32 197.674 430.647 198.28 430.984 198.882C431.045 198.991 431.1 199.096 431.16 199.204C431.479 199.771 431.81 200.343 432.149 200.912C432.236 201.06 432.317 201.204 432.407 201.351C432.723 201.879 433.051 202.406 433.384 202.937C433.503 203.126 433.619 203.317 433.741 203.509C434.048 203.992 434.367 204.475 434.686 204.959C434.845 205.197 434.999 205.436 435.158 205.675C435.454 206.111 435.759 206.55 436.063 206.986C436.26 207.272 436.454 207.558 436.657 207.841C436.939 208.236 437.226 208.63 437.513 209.021C437.753 209.349 437.988 209.677 438.232 210.005C438.495 210.36 438.771 210.715 439.043 211.071C439.319 211.435 439.591 211.796 439.875 212.16C440.133 212.487 440.397 212.815 440.658 213.14C440.968 213.529 441.273 213.917 441.589 214.304C441.844 214.615 442.105 214.926 442.366 215.234C442.699 215.637 443.027 216.036 443.369 216.436C443.636 216.747 443.911 217.058 444.181 217.369C444.523 217.764 444.862 218.158 445.213 218.552C445.517 218.894 445.833 219.236 446.143 219.577C446.468 219.935 446.79 220.294 447.12 220.652C447.506 221.069 447.9 221.48 448.295 221.896C448.558 222.177 448.819 222.457 449.089 222.735C449.669 223.337 450.26 223.935 450.857 224.532C450.947 224.62 451.031 224.712 451.121 224.801C451.817 225.495 452.522 226.184 453.238 226.867C453.951 227.553 454.67 228.225 455.392 228.892C455.505 228.994 455.618 229.094 455.731 229.197C456.334 229.75 456.94 230.3 457.549 230.838C457.847 231.102 458.146 231.358 458.445 231.616C458.871 231.988 459.297 232.363 459.726 232.727C460.103 233.046 460.483 233.357 460.862 233.674C461.213 233.968 461.564 234.265 461.918 234.554C462.327 234.885 462.735 235.207 463.141 235.532C463.472 235.796 463.799 236.062 464.13 236.32C464.539 236.64 464.947 236.948 465.356 237.262C465.69 237.517 466.023 237.776 466.356 238.028C466.751 238.323 467.145 238.609 467.539 238.898C467.89 239.156 468.244 239.417 468.595 239.67C468.963 239.933 469.331 240.186 469.696 240.444C470.082 240.711 470.465 240.983 470.847 241.247C471.175 241.472 471.502 241.686 471.83 241.905C472.256 242.191 472.682 242.477 473.106 242.755C473.387 242.938 473.668 243.113 473.952 243.294C474.425 243.596 474.897 243.899 475.37 244.191C475.602 244.335 475.834 244.471 476.066 244.613C476.588 244.929 477.109 245.246 477.631 245.549C477.817 245.657 478 245.76 478.185 245.865C478.753 246.193 479.322 246.518 479.887 246.829C480.023 246.904 480.162 246.976 480.299 247.051C480.91 247.382 481.522 247.709 482.131 248.023C482.224 248.07 482.319 248.118 482.415 248.165C483.061 248.498 483.708 248.817 484.352 249.126C484.415 249.156 484.479 249.187 484.54 249.214C485.213 249.537 485.879 249.842 486.546 250.136C486.59 250.156 486.633 250.175 486.674 250.195C487.161 250.409 487.648 250.625 488.129 250.825C488.306 250.897 488.477 250.958 488.651 251.031C488.68 251.042 488.709 251.056 488.738 251.067C488.755 251.075 488.776 251.078 488.793 251.086C491.507 252.18 494.107 253.025 496.577 253.619L396.437 338.62C396.286 338.373 396.133 338.126 395.967 337.885C394.176 335.23 393.634 331.955 394.483 328.898C397.481 318.078 391.523 306.875 380.622 302.84C377.543 301.699 375.093 299.352 373.905 296.403C369.692 285.961 357.997 280.257 346.699 283.126C343.507 283.939 340.089 283.417 337.317 281.704C337.074 281.551 336.824 281.409 336.578 281.271L384.353 229.625C386.394 227.42 386.18 224.051 383.881 222.096C381.576 220.144 378.059 220.346 376.021 222.552L324.549 278.191C318 278.288 311.578 281.076 307.16 286.278C305.078 288.73 301.994 290.238 298.697 290.41C287.025 291.021 277.745 299.91 277.107 311.091C276.927 314.249 275.356 317.203 272.793 319.197C267.363 323.43 264.452 329.581 264.351 335.854L146.899 435.55C146.815 435.622 146.734 435.694 146.656 435.772C140.672 441.501 140.449 451.443 146.024 463.762C150.903 474.54 159.783 486.41 171.035 497.187C182.284 507.963 194.678 516.472 205.927 521.143C212.122 523.714 217.738 525 222.568 525C227.766 525 232.048 523.512 235.15 520.54C235.229 520.465 235.307 520.387 235.379 520.307L256.103 497.907C258.141 495.702 257.929 492.33 255.63 490.378C253.325 488.423 249.809 488.628 247.77 490.831L227.186 513.081C222.806 516.944 202.622 512.362 178.906 489.645C156.841 468.508 149.726 448.252 154.437 443.401L267.563 347.377C267.708 347.613 267.859 347.852 268.015 348.085C269.807 350.74 270.349 354.017 269.503 357.072C266.502 367.894 272.46 379.097 283.364 383.132C286.442 384.27 288.889 386.617 290.081 389.566C294.293 400.008 305.989 405.718 317.284 402.844C320.476 402.033 323.894 402.552 326.668 404.268C326.924 404.424 327.185 404.563 327.443 404.71L264.951 472.263C262.91 474.468 263.122 477.837 265.423 479.789C266.485 480.689 267.801 481.133 269.114 481.133C270.651 481.133 272.181 480.525 273.283 479.336L330.78 417.187L342.55 453.79C343.385 456.392 345.635 458.361 348.418 458.927C348.957 459.036 349.502 459.088 350.042 459.088C352.283 459.088 354.451 458.166 355.956 456.511L370.875 440.115L390.943 445.872C393.721 446.666 396.715 445.936 398.759 443.962C400.8 441.99 401.54 439.115 400.684 436.461L387.824 396.468L429.575 408.787C430.337 409.012 431.117 409.12 431.891 409.12C433.926 409.12 435.915 408.359 437.408 406.94C439.467 404.982 440.229 402.113 439.397 399.453L433.39 380.23L450.51 365.942C452.652 364.15 453.617 361.384 453.029 358.718C452.438 356.055 450.382 353.9 447.665 353.098L409.454 341.822L517.106 250.442C517.153 250.403 517.193 250.361 517.237 250.32C517.275 250.286 517.315 250.256 517.35 250.223C517.376 250.198 517.399 250.17 517.425 250.142C517.501 250.067 517.576 249.986 517.646 249.909C523.325 244.132 523.459 234.335 517.982 222.229ZM337.845 397.048C337.801 397.042 337.758 397.04 337.714 397.037C335.981 396.84 334.27 396.273 332.713 395.309C328.985 393.002 324.654 391.805 320.285 391.805C318.325 391.805 316.353 392.046 314.428 392.535C308.63 394.01 302.629 391.08 300.466 385.72C298.149 379.974 293.377 375.403 287.376 373.182C281.784 371.113 278.725 365.361 280.264 359.81C281.914 353.853 280.859 347.468 277.368 342.295C276.368 340.814 275.779 339.187 275.571 337.54C275.565 337.487 275.559 337.435 275.553 337.382C275.144 333.711 276.64 329.948 279.818 327.47C284.81 323.582 287.872 317.823 288.223 311.669C288.55 305.934 293.314 301.371 299.303 301.057C305.725 300.721 311.738 297.786 315.797 293.007C318.391 289.952 322.331 288.519 326.176 288.921C326.222 288.927 326.268 288.933 326.315 288.938C328.034 289.138 329.73 289.702 331.272 290.657C336.674 294.004 343.339 295.012 349.557 293.431C355.356 291.957 361.357 294.887 363.517 300.246C365.836 305.992 370.608 310.563 376.607 312.785C382.202 314.857 385.261 320.605 383.721 326.16C382.069 332.114 383.124 338.498 386.618 343.675C387.624 345.163 388.215 346.805 388.418 348.465C388.424 348.507 388.427 348.549 388.432 348.59C388.838 352.262 387.345 356.022 384.165 358.496C382.767 359.588 381.527 360.826 380.448 362.179C380.323 362.32 380.202 362.47 380.092 362.629C377.532 366.008 376.004 370.06 375.76 374.298C375.636 376.492 374.859 378.514 373.612 380.194C373.502 380.319 373.397 380.449 373.302 380.585C372.702 381.321 372.009 381.985 371.237 382.557C371.101 382.649 370.968 382.746 370.84 382.849C369.086 384.043 366.976 384.79 364.682 384.909C360.305 385.14 356.118 386.578 352.61 388.983C352.433 389.097 352.262 389.217 352.103 389.347C350.665 390.394 349.346 391.599 348.189 392.963C345.603 396.007 341.678 397.44 337.845 397.048ZM351.448 445.233L339.425 407.84L339.486 407.776C344.322 407.693 349.085 406.146 353.022 403.241L362.56 433.023L351.448 445.233ZM388.23 433.958L373.116 429.626L362.378 396.087C363.314 395.801 364.288 395.612 365.288 395.562C368.811 395.376 372.113 394.432 375.03 392.904L388.23 433.958ZM384.107 384.209C385.701 381.418 386.687 378.255 386.879 374.881C386.934 373.901 387.139 372.945 387.45 372.029L422.44 382.371L426.965 396.856L384.107 384.209ZM438.736 361.623L425.991 372.262L394.938 363.081C397.948 359.318 399.551 354.772 399.635 350.157L399.696 350.104L438.736 361.623ZM464.054 222.06C464.005 222.018 463.959 221.977 463.912 221.932C463.57 221.624 463.231 221.313 462.895 220.999C462.3 220.449 461.706 219.899 461.109 219.325C460.555 218.794 460.007 218.258 459.465 217.719C459.224 217.481 458.984 217.239 458.743 216.997C458.491 216.745 458.245 216.492 457.995 216.236C451.797 209.899 446.462 203.181 442.522 196.78C448.851 198.91 457.833 204.075 467.432 213.27C477.031 222.465 482.424 231.066 484.644 237.129C477.872 233.302 470.752 228.103 464.054 222.06ZM509.522 242.63L509.226 242.88C507.348 244.341 503.011 244.452 496.966 242.611C496.833 231.394 486.683 216.628 475.303 205.728C463.915 194.822 448.486 185.094 436.773 184.98C434.944 179.537 434.822 175.169 436.541 173.211L436.785 172.947C437.739 172.072 439.336 171.642 441.406 171.642C444.595 171.642 448.895 172.658 453.649 174.633C463.646 178.784 474.816 186.496 485.1 196.347C508.896 219.138 513.627 238.525 509.522 242.63Z" fill="white"/>
</g>
<defs>
<clipPath id="clip0_4_467">
<rect width="380" height="364" fill="white" transform="translate(142 161)"/>
</clipPath>
</defs>
</svg>
