<svg version="1.2" xmlns="http://www.w3.org/2000/svg" viewBox="0 0 119 117" width="119" height="117">
	<title>g867</title>
	<defs>
		<clipPath clipPathUnits="userSpaceOnUse" id="cp1">
			<path d="m1.7 2.79h115.2v115.21h-115.2z"/>
		</clipPath>
	</defs>
	<style>
		.s0 { fill: none;stroke: #294845;stroke-linecap: round;stroke-miterlimit:100;stroke-width: 4 } 
	</style>
	<g id="g867">
		<g id="g869">
			<g id="g871" clip-path="url(#cp1)">
				<g id="g877">
					<path id="path879" class="s0" d="m79.1 36.9h21.7c3 0 5.4 2.5 5.4 5.5v63.1"/>
				</g>
				<g id="g881">
					<path id="path883" class="s0" d="m12.4 105.5v-63.1c0-3 2.4-5.5 5.4-5.5h21.7"/>
				</g>
				<g id="g885">
					<path id="path887" class="s0" d="m34 105.5h81.2v3.6c0 2-1.6 3.6-3.6 3.6h-104.6c-2 0-3.6-1.6-3.6-3.6v-3.6h23.4"/>
				</g>
				<g id="g889">
					<path id="path891" class="s0" d="m66.1 57.2c4.3-6.7 6.8-14.7 6.8-23.4 0-12.2-4.9-23.1-12.6-30.7-7.7 7.6-12.6 18.5-12.6 30.7 0 8.7 2.5 16.7 6.8 23.4z"/>
				</g>
				<g id="g893">
					<path id="path895" class="s0" d="m66.5 69.4h-14.4l1.8-7.2h10.8z"/>
				</g>
				<g id="g897">
					<path id="path899" class="s0" d="m46.7 47.8l-7.8 9.3c-0.8 1-1.2 2.2-1.2 3.5v5.2l12.8-7.2"/>
				</g>
				<g id="g901">
					<path id="path903" class="s0" d="m71.9 47.8l7.8 9.3c0.8 1 1.2 2.2 1.2 3.5v5.2l-12.8-7.2"/>
				</g>
				<g id="g905">
					<path id="path907" class="s0" d="m50.3 22.5h18"/>
				</g>
				<g id="g909">
					<path id="path911" class="s0" d="m96.6 105.5q0.6-1.7 0.6-3.6c0-7-5.7-12.6-12.6-12.6-1.5 0-2.9 0.2-4.2 0.7-1.2-3.6-4.5-6.2-8.5-6.2-2.2 0-4.2 0.9-5.7 2.2 0.2-0.7 0.3-1.4 0.3-2.2 0-3.9-3.2-7.2-7.2-7.2-4 0-7.2 3.3-7.2 7.2 0 0.8 0.1 1.5 0.3 2.2-1.5-1.3-3.5-2.2-5.7-2.2-4 0-7.3 2.6-8.5 6.2-1.3-0.5-2.7-0.7-4.2-0.7-6.9 0-12.6 5.6-12.6 12.6q0 1.9 0.6 3.6"/>
				</g>
				<g id="g913">
					<path id="path915" class="s0" d="m64.7 36.9c0 3-2.4 5.5-5.4 5.5-3 0-5.4-2.5-5.4-5.5 0-2.9 2.4-5.4 5.4-5.4 3 0 5.4 2.5 5.4 5.4z"/>
				</g>
			</g>
		</g>
	</g>
</svg>