<svg version="1.2" xmlns="http://www.w3.org/2000/svg" viewBox="0 0 41 32" width="41" height="32">
	<title>car-2</title>
	<style>
		.s0 { fill: #294845 } 
	</style>
	<g id="car-2">
		<g id="Grupo 43">
			<g id="Grupo 42">
				<path id="Caminho 40" fill-rule="evenodd" class="s0" d="m40.4 15.8v12.2c0 1.9-1.5 3.5-3.5 3.5h-2.2c-1.9 0-3.5-1.6-3.5-3.5v-1.8h-20.9v1.8c0 1.9-1.6 3.5-3.6 3.5h-2.2c-1.9 0-3.5-1.6-3.5-3.5v-11.9c0-1.4 0.6-2.8 1.7-3.7l1.2-1.1 3-8.1c0.5-1.3 1.8-2.3 3.3-2.3h21.6c1.4 0.1 2.7 1 3.3 2.3l3 8.2 0.8 0.9c1 0.9 1.5 2.2 1.5 3.5zm-34.5-4.9h16.8c0.4-2.5 2.4-4.5 4.9-4.9 3.1-0.5 6.1 1.7 6.5 4.9h2l-2.6-7.1c-0.3-0.7-1-1.2-1.7-1.2h-21.6c-0.7 0-1.4 0.5-1.7 1.2zm23.4-3.2c-2.2-0.4-4.4 1-4.9 3.2h8.1c-0.4-1.6-1.6-2.8-3.2-3.2zm-20.7 18.6h-4c-0.7 0-1.4-0.2-1.9-0.5v2.2c0 1 0.8 1.8 1.9 1.8h2.2c1 0 1.8-0.8 1.8-1.8zm30.2-0.5c-0.5 0.3-1.2 0.5-1.8 0.5h-4.1v1.7c0 1 0.8 1.8 1.8 1.8h2.3c1 0 1.8-0.8 1.8-1.8zm0-3v-7c0-0.8-0.4-1.7-1-2.3q0 0-0.1 0l-0.8-0.9h-31.9l-1.1 1.1q0 0-0.1 0c-0.7 0.6-1.1 1.5-1.1 2.4v6.7c0 1 0.8 1.8 1.9 1.8h32.4c1 0 1.8-0.8 1.8-1.8z"/>
			</g>
		</g>
		<g id="Grupo 45">
			<g id="Grupo 44">
				<path id="Caminho 41" fill-rule="evenodd" class="s0" d="m13 16.8v4.4c0 0.4-0.4 0.8-0.9 0.8h-6.3c-0.5 0-0.8-0.4-0.8-0.8v-4.4c0-0.5 0.3-0.9 0.8-0.9h6.3c0.5 0 0.9 0.4 0.9 0.9zm-1.7 0.8h-4.7v2.7h4.7z"/>
			</g>
		</g>
		<g id="Grupo 47">
			<g id="Grupo 46">
				<path id="Caminho 42" fill-rule="evenodd" class="s0" d="m36.5 16.8v4.4c0 0.4-0.4 0.8-0.9 0.8h-6.3c-0.4 0-0.8-0.4-0.8-0.8v-4.4c0-0.5 0.4-0.9 0.8-0.9h6.3c0.5 0 0.9 0.4 0.9 0.9zm-1.7 0.8h-4.6v2.7h4.6z"/>
			</g>
		</g>
		<g id="Grupo 49">
			<g id="Grupo 48">
				<path id="Caminho 43" class="s0" d="m24.8 19.5h-8.1c-0.5 0-0.9 0.4-0.9 0.8 0 0.5 0.4 0.9 0.9 0.9h8.1c0.5 0 0.8-0.4 0.8-0.9 0-0.4-0.3-0.8-0.8-0.8z"/>
			</g>
		</g>
		<g id="Grupo 51">
			<g id="Grupo 50">
				<path id="Caminho 44" class="s0" d="m24.8 16.9h-8.1c-0.5 0-0.9 0.4-0.9 0.8 0 0.5 0.4 0.9 0.9 0.9h8.1c0.5 0 0.8-0.4 0.8-0.9 0-0.4-0.3-0.8-0.8-0.8z"/>
			</g>
		</g>
	</g>
</svg>