<svg version="1.2" xmlns="http://www.w3.org/2000/svg" viewBox="0 0 110 91" width="110" height="91">
	<title>car</title>
	<style>
		.s0 { fill: #294845 } 
	</style>
	<g id="car">
		<path id="Caminho 35" fill-rule="evenodd" class="s0" d="m109.6 61.7v10.8c0 3.8-3.1 6.9-7 6.9h-4.2c-0.4 3.1-2.3 5.9-5.1 7.3h8.9c1.1 0 1.9 0.9 1.9 2 0 1-0.8 1.9-1.9 1.9-13.7 0-100.1 0-100.1 0-1.1 0-2-0.9-2-1.9 0-1.1 0.9-2 2-2h2.8v-3.6c0-3.1 2.6-5.7 5.8-5.7h3.8v-47.3c0-9.6 7.8-17.4 17.4-17.4h7.3c0 0 0-6 0-6 0-3.2 2.6-5.8 5.8-5.8h22.8c3.2 0 5.8 2.6 5.8 5.8v18.1c0 3.2-2.6 5.8-5.8 5.8h-22.8c-3.2 0-5.8-2.6-5.8-5.8v-8.2c0 0-7.3 0-7.3 0-7.5 0-13.5 6-13.5 13.5v47.3h3.8c3.1 0 5.7 2.6 5.7 5.7v3.6h18.6c-2.8-1.4-4.7-4.2-5.1-7.3h-2.4c-2.6 0-5-1.1-6.7-3.1-1.7-2-2.4-4.6-2-7.1l0.6-3.7c0.7-4 3.8-7.1 7.8-7.9l10.8-2.1 10.1-9.7c1.9-1.8 4.4-2.8 7-2.8l18.2 0.2c3.1 0.1 5.9 1.5 7.8 3.9 1.8 2.2 4.1 6.4 7.3 6.9l4.2 0.9c3.2 0.7 5.5 3.5 5.5 6.8zm-66.5-36.9c0 1.1 0.9 1.9 1.9 1.9h22.8c1.1 0 1.9-0.8 1.9-1.9v-18.1c0-1-0.8-1.9-1.9-1.9h-22.8c-1 0-1.9 0.9-1.9 1.9zm62.6 36.8c0-1.4-1-2.6-2.4-2.9l-4.3-1c-2.4-0.5-4.6-1.9-6.2-3.9l-3.3-4.4c-1.2-1.5-2.9-2.3-4.7-2.3l-18.2-0.3c-1.6 0-3.1 0.6-4.3 1.7l-10.5 10.2q-0.4 0.4-1 0.5l-11.4 2.2c-2.4 0.5-4.2 2.3-4.6 4.7l-0.6 3.7c-0.3 1.4 0.1 2.8 1.1 3.9 0.9 1.1 2.3 1.8 3.7 1.8h2.7c1.2-4.3 5.1-7.2 9.5-7.1 4.4 0.1 8.2 3.2 9.2 7.5 1 4.3-1.1 8.7-5 10.7h29c-2.8-1.4-4.7-4.1-5.1-7.2h-10.9c-1.1 0-1.9-0.9-1.9-2 0-1 0.8-1.9 1.9-1.9h11.2c1.2-4.1 4.9-7 9.2-7 4.3 0 8.1 2.9 9.3 7h4.5c1.7 0 3.1-1.4 3.1-3.1zm-81.7 25.1v-3.6c0-1-0.8-1.8-1.8-1.8h-11.5c-1 0-1.8 0.8-1.8 1.8v3.6zm70.6-8.6c0-3.2-2.6-5.7-5.8-5.7-3.2 0-5.8 2.5-5.8 5.7 0 3.2 2.6 5.8 5.8 5.8 3.2 0 5.8-2.6 5.8-5.8zm-49.5 0c0 3.2 2.6 5.8 5.8 5.8 3.2 0 5.8-2.6 5.8-5.8 0-3.2-2.6-5.7-5.8-5.7-3.2 0-5.8 2.6-5.8 5.7z"/>
		<path id="Caminho 36" class="s0" d="m50.9 80.3c1.2 0 2.1-1 2.1-2.1 0-1.2-0.9-2.1-2.1-2.1-1.1 0-2.1 0.9-2.1 2.1 0 1.1 1 2.1 2.1 2.1z"/>
		<path id="Caminho 37" class="s0" d="m88.8 76.1c-1.1 0-2.1 0.9-2.1 2.1 0 1.1 1 2.1 2.1 2.1 1.2 0 2.1-1 2.1-2.1 0-1.2-0.9-2.1-2.1-2.1z"/>
		<path id="Caminho 38" fill-rule="evenodd" class="s0" d="m50.9 24.1c-0.3-0.3-0.5-0.8-0.5-1.3v-14c0-0.5 0.2-1 0.5-1.4 0.4-0.4 0.9-0.6 1.4-0.6h5.9c3.4 0 6.1 2.8 6.1 6.1 0 3.4-2.7 6.2-6.1 6.1h-3.9v3.8c0 0.5-0.2 1-0.6 1.3-0.4 0.4-0.8 0.6-1.4 0.6-0.5 0-1-0.2-1.4-0.6zm3.4-9h3.9c1.2 0 2.2-0.9 2.2-2.2 0-1.2-1-2.2-2.2-2.2h-3.9z"/>
	</g>
</svg>