<svg xmlns="http://www.w3.org/2000/svg" version="1.1" xmlns:xlink="http://www.w3.org/1999/xlink" xmlns:svgjs="http://svgjs.com/svgjs" width="512" height="512" x="0" y="0" viewBox="0 0 24 24" style="enable-background:new 0 0 512 512" xml:space="preserve" class=""><g><path fill="#294845" fill-rule="evenodd" d="M6.293 6.293a1 1 0 0 1 1.414 0l3.94 3.94a.5.5 0 0 0 .707 0l3.939-3.94a1 1 0 1 1 1.414 1.414l-3.94 3.94a.5.5 0 0 0 0 .707l3.94 3.939a1 1 0 0 1-1.414 1.414l-3.94-3.94a.5.5 0 0 0-.707 0l-3.939 3.94a1 1 0 0 1-1.414-1.414l3.94-3.94a.5.5 0 0 0 0-.707l-3.94-3.939a1 1 0 0 1 0-1.414z" clip-rule="evenodd" data-original="#292929" class="" opacity="1"></path></g></svg>