<svg version="1.2" xmlns="http://www.w3.org/2000/svg" viewBox="0 0 123 107" width="123" height="107">
	<title>Layer 10</title>
	<style>
		.s0 { fill: #294845 } 
	</style>
	<g id="Layer 10">
		<path id="Caminho 16" fill-rule="evenodd" class="s0" d="m115.1 102.6h5.3v4h-120.3v-4h7.7v-101.8l45.5 18.5v-18.5l49.3 20.1v81.8h8.5v-8.6c-4.3-0.9-7.3-4.7-7.3-9 0-2.3 0.8-4.4 2.3-6.1q-0.4-1.2-0.4-2.5c0-4 3.3-7.4 7.4-7.4 4.1 0 7.4 3.4 7.4 7.4q0 1.3-0.5 2.5c1.5 1.7 2.3 3.8 2.3 6.1 0 4.3-3 8.1-7.2 9zm-3.3-12.3c2.4 0.7 4.9-0.5 6-2.7 1.1-2.2 0.5-4.9-1.4-6.5l-1.3-1.1 0.9-1.5c0.9-1.4 0.6-3.3-0.6-4.4-1.3-1.1-3.2-1.1-4.5 0-1.3 1.1-1.6 3-0.7 4.4l1 1.5-1.4 1.1c-1.2 1-1.9 2.4-2 3.9-0.1 2.5 1.6 4.7 4 5.3zm-54.5 4.6h41.5v-71.4l-41.5-16.9zm-4-71.3l-18.7-7.7v6.8h5.9v4h-5.9v10.3h5.9v4h-5.9v10.4h5.9v4h-5.9v10.4h5.9v4h-5.9v10.4h5.9v3.9h-5.9v3h18.7v-10.8h-6.3v-4h6.3v-11.4h-6.3v-4h6.3v-9.8h-6.3v-3.9h6.3v-9.8h-6.3v-3.9h6.3zm-31.2 67.5v11.5h4.4v-11.6zm8.2 11.6h4.3v-11.6h-4.2zm8.2 0h4.4v-11.6h-4.2zm-26.9-95.9v80.5h19.1v-72.9zm0 96.1h6.5v-11.6h-6.5zm41.6 0v-11.6h-6.6v11.6zm45.3 0v-3.7h-41.5v3.7z"/>
		<path id="Caminho 17" class="s0" d="m15.7 34.2h7.1v4h-7.1z"/>
		<path id="Caminho 18" class="s0" d="m15.7 43.3h7.1v3.9h-7.1z"/>
		<path id="Caminho 19" class="s0" d="m15.7 52.3h7.1v3.9h-7.1z"/>
		<path id="Caminho 20" class="s0" d="m15.7 61.3h7.1v4h-7.1z"/>
		<path id="Caminho 21" class="s0" d="m15.7 70.4h7.1v3.9h-7.1z"/>
		<path id="Caminho 22" class="s0" d="m84.4 34.2h7v4h-7z"/>
		<path id="Caminho 23" class="s0" d="m84.4 43.3h7v3.9h-7z"/>
		<path id="Caminho 24" class="s0" d="m84.4 52.3h7v3.9h-7z"/>
		<path id="Caminho 25" class="s0" d="m84.4 61.3h7v4h-7z"/>
		<path id="Caminho 26" class="s0" d="m84.4 70.4h7v3.9h-7z"/>
		<path id="Caminho 27" class="s0" d="m84.4 79.4h7v3.9h-7z"/>
		<path id="Caminho 28" class="s0" d="m64.4 34.2h7v4h-7z"/>
		<path id="Caminho 29" class="s0" d="m64.4 43.3h7v3.9h-7z"/>
		<path id="Caminho 30" class="s0" d="m64.4 52.3h7v3.9h-7z"/>
		<path id="Caminho 31" class="s0" d="m64.4 61.3h7v4h-7z"/>
		<path id="Caminho 32" class="s0" d="m64.4 70.4h7v3.9h-7z"/>
		<path id="Caminho 33" class="s0" d="m64.4 79.4h7v3.9h-7z"/>
		<path id="Caminho 34" class="s0" d="m15.7 79.4h7.1v3.9h-7.1z"/>
	</g>
</svg>