<svg width="34" height="34" viewBox="0 0 34 34" fill="none" xmlns="http://www.w3.org/2000/svg">
<path fill-rule="evenodd" clip-rule="evenodd" d="M7.74917 16.2494C7.55019 16.4486 7.43843 16.7186 7.43843 17.0002C7.43843 17.2818 7.55019 17.5518 7.74917 17.751L13.4158 23.4177C13.5131 23.5221 13.6304 23.6058 13.7607 23.6639C13.8911 23.722 14.0318 23.7532 14.1744 23.7557C14.3171 23.7582 14.4588 23.732 14.5911 23.6785C14.7234 23.6251 14.8436 23.5456 14.9445 23.4447C15.0454 23.3438 15.1249 23.2236 15.1783 23.0913C15.2318 22.959 15.258 22.8173 15.2555 22.6746C15.253 22.532 15.2218 22.3913 15.1637 22.2609C15.1056 22.1306 15.0219 22.0133 14.9175 21.916L11.0642 18.0627L25.5 18.0627C25.7818 18.0627 26.052 17.9507 26.2513 17.7515C26.4506 17.5522 26.5625 17.282 26.5625 17.0002C26.5625 16.7184 26.4506 16.4481 26.2513 16.2489C26.052 16.0496 25.7818 15.9377 25.5 15.9377L11.0642 15.9377L14.9175 12.0844C15.0219 11.9871 15.1056 11.8698 15.1637 11.7395C15.2218 11.6091 15.253 11.4684 15.2555 11.3258C15.258 11.1831 15.2318 11.0414 15.1783 10.9091C15.1249 10.7768 15.0454 10.6566 14.9445 10.5557C14.8436 10.4548 14.7234 10.3753 14.5911 10.3218C14.4588 10.2684 14.3171 10.2422 14.1744 10.2447C14.0318 10.2472 13.8911 10.2784 13.7607 10.3365C13.6304 10.3946 13.5131 10.4783 13.4158 10.5827L7.74917 16.2494Z" fill="#DCEEB4"/>
</svg>
