<svg version="1.2" xmlns="http://www.w3.org/2000/svg" viewBox="0 0 176 56" width="176" height="56">
	<title>Grupo 12</title>
	<defs>
		<clipPath clipPathUnits="userSpaceOnUse" id="cp1">
			<path d="m0 0.74h175.74v54.28h-175.74z"/>
		</clipPath>
	</defs>
	<style>
		.s0 { fill: #fbdfb7 } 
	</style>
	<g id="Grupo 12">
		<g id="Grupo 1" clip-path="url(#cp1)">
			<path id="Caminho 1" fill-rule="evenodd" class="s0" d="m69.8 55l-27.3-37.4v30h-5.3v-37.2l-4.9-6.7 4-3 28.2 38.5v-30h5.3v37.3l4 5.6zm100.5-7.4l-6.9-14.2h0.6l1.8-0.3q1.4-0.2 2.5-0.7l7.5 15.2zm-6.9-14.2h-11.3v14.2h-4.7v-38.4h15.2q0.5 0 1.3 0 0.8 0.1 1.5 0.2 3.1 0.5 5.2 2.1 2.2 1.7 3.2 4.2 1.1 2.5 1.1 5.6 0 4.4-2.3 7.7-1.6 2.3-4.3 3.4l-0.9-1.9-4.7 1.5zm-11.3-4.5h10.3q0.5 0 1.2-0.1 0.6-0.1 1.2-0.2 1.9-0.4 3-1.5 1.2-1.2 1.7-2.7 0.5-1.5 0.5-3.1 0-1.6-0.5-3.2-0.5-1.5-1.7-2.7-1.1-1.1-3-1.5-0.6-0.2-1.2-0.2-0.7 0-1.2 0h-10.3zm-33.1 18.6v-38.4h4.7v33.9h17.8v4.5zm-24.4 0.8q-3.9 0-7.2-1.3-3.2-1.4-5.6-4-2.3-2.6-3.6-6.3-1.2-3.7-1.2-8.4 0-6.1 2.1-10.6 2.2-4.4 6.2-6.9 4-2.4 9.3-2.4 6.5 0 10.4 3 4 3 5.5 8.2l-4.8 1q-1.2-3.5-4-5.6-2.7-2.1-6.8-2.1-4.3 0-7.2 1.9-2.8 1.9-4.2 5.4-1.5 3.5-1.5 8.1 0 4.6 1.4 8.1 1.4 3.5 4.3 5.4 2.9 2 7.2 2 3.7 0 6.2-1.4 2.5-1.4 3.9-4.2 1.4-2.7 1.7-6.5h-11.8v-3.9h16.8q0.1 0.5 0.1 1.3 0 0.7 0 1 0 5.2-1.9 9.4-2 4.1-5.8 6.5-3.8 2.3-9.5 2.3zm-79.1 0q-4.1 0-7.3-1.3-3.3-1.4-5.4-4-2.1-2.6-2.8-6.1l4.9-0.8q1 3.7 3.9 5.7 2.9 2 6.9 2 2.6 0 4.7-0.8 2.1-0.8 3.3-2.3 1.3-1.5 1.3-3.6 0-1.3-0.5-2.2-0.4-0.9-1.2-1.6-0.7-0.6-1.7-1.1-0.9-0.4-2-0.7l-9.8-2.9q-1.6-0.5-3.1-1.3-1.5-0.7-2.6-1.8-1.2-1.1-1.9-2.7-0.7-1.5-0.7-3.7 0-3.4 1.8-5.8 1.8-2.4 4.8-3.7 3-1.3 6.8-1.2 3.9 0 7 1.3 3 1.4 5 3.9 2 2.5 2.7 6l-5 0.9q-0.4-2.4-1.8-4.1-1.3-1.7-3.4-2.6-2.1-0.9-4.5-0.9-2.4 0-4.2 0.7-1.9 0.8-3.1 2.2-1.1 1.3-1.1 3.1 0 1.8 1 2.9 1 1.1 2.5 1.7 1.5 0.6 2.9 1l7.3 2.1q1.3 0.4 2.9 1 1.7 0.6 3.2 1.7 1.6 1.1 2.6 2.9 1 1.9 1 4.6 0 2.8-1.1 5-1.1 2.1-3.1 3.6-2 1.4-4.6 2.2-2.6 0.7-5.6 0.7z"/>
			<g id="Pasta 3">
				<g id="Pasta 2">
					<g id="Pasta 1">
						<path id="Caminho 1 copy" fill-rule="evenodd" class="s0" d="m69.8 55l-27.3-37.4v30h-5.3v-37.2l-4.9-6.7 4-3 28.2 38.5v-30h5.3v37.3l4 5.6zm100.5-7.4l-6.9-14.2h0.6l1.8-0.3q1.4-0.2 2.5-0.7l7.5 15.2zm-6.9-14.2h-11.3v14.2h-4.7v-38.4h15.2q0.5 0 1.3 0 0.8 0.1 1.5 0.2 3.1 0.5 5.2 2.1 2.2 1.7 3.2 4.2 1.1 2.5 1.1 5.6 0 4.4-2.3 7.7-1.6 2.3-4.3 3.4l-0.9-1.9-4.7 1.5zm-11.3-4.5h10.3q0.5 0 1.2-0.1 0.6-0.1 1.2-0.2 1.9-0.4 3-1.5 1.2-1.2 1.7-2.7 0.5-1.5 0.5-3.1 0-1.6-0.5-3.2-0.5-1.5-1.7-2.7-1.1-1.1-3-1.5-0.6-0.2-1.2-0.2-0.7 0-1.2 0h-10.3zm-33.1 18.6v-38.4h4.7v33.9h17.8v4.5zm-24.4 0.8q-3.9 0-7.2-1.3-3.2-1.4-5.6-4-2.3-2.6-3.6-6.3-1.2-3.7-1.2-8.4 0-6.1 2.1-10.6 2.2-4.4 6.2-6.9 4-2.4 9.3-2.4 6.5 0 10.4 3 4 3 5.5 8.2l-4.8 1q-1.2-3.5-4-5.6-2.7-2.1-6.8-2.1-4.3 0-7.2 1.9-2.8 1.9-4.2 5.4-1.5 3.5-1.5 8.1 0 4.6 1.4 8.1 1.4 3.5 4.3 5.4 2.9 2 7.2 2 3.7 0 6.2-1.4 2.5-1.4 3.9-4.2 1.4-2.7 1.7-6.5h-11.8v-3.9h16.8q0.1 0.5 0.1 1.3 0 0.7 0 1 0 5.2-1.9 9.4-2 4.1-5.8 6.5-3.8 2.3-9.5 2.3zm-79.1 0q-4.1 0-7.3-1.3-3.3-1.4-5.4-4-2.1-2.6-2.8-6.1l4.9-0.8q1 3.7 3.9 5.7 2.9 2 6.9 2 2.6 0 4.7-0.8 2.1-0.8 3.3-2.3 1.3-1.5 1.3-3.6 0-1.3-0.5-2.2-0.4-0.9-1.2-1.6-0.7-0.6-1.7-1.1-0.9-0.4-2-0.7l-9.8-2.9q-1.6-0.5-3.1-1.3-1.5-0.7-2.6-1.8-1.2-1.1-1.9-2.7-0.7-1.5-0.7-3.7 0-3.4 1.8-5.8 1.8-2.4 4.8-3.7 3-1.3 6.8-1.2 3.9 0 7 1.3 3 1.4 5 3.9 2 2.5 2.7 6l-5 0.9q-0.4-2.4-1.8-4.1-1.3-1.7-3.4-2.6-2.1-0.9-4.5-0.9-2.4 0-4.2 0.7-1.9 0.8-3.1 2.2-1.1 1.3-1.1 3.1 0 1.8 1 2.9 1 1.1 2.5 1.7 1.5 0.6 2.9 1l7.3 2.1q1.3 0.4 2.9 1 1.7 0.6 3.2 1.7 1.6 1.1 2.6 2.9 1 1.9 1 4.6 0 2.8-1.1 5-1.1 2.1-3.1 3.6-2 1.4-4.6 2.2-2.6 0.7-5.6 0.7z"/>
					</g>
				</g>
			</g>
		</g>
	</g>
</svg>