<svg xmlns="http://www.w3.org/2000/svg" version="1.1" xmlns:xlink="http://www.w3.org/1999/xlink" xmlns:svgjs="http://svgjs.com/svgjs" width="512" height="512" x="0" y="0" viewBox="0 0 24 24" style="enable-background:new 0 0 512 512" xml:space="preserve" class=""><g><path fill="#294845" fill-rule="evenodd" d="M3.25 12a.75.75 0 0 1 .75-.75h16a.75.75 0 0 1 0 1.5H4a.75.75 0 0 1-.75-.75zm3.283 7a.75.75 0 0 1 .75-.75H20a.75.75 0 0 1 0 1.5H7.283a.75.75 0 0 1-.75-.75zm5.689-14a.75.75 0 0 1 .75-.75H20a.75.75 0 0 1 0 1.5h-7.028a.75.75 0 0 1-.75-.75z" clip-rule="evenodd" data-original="#000000" opacity="1"></path></g></svg>