<svg version="1.2" xmlns="http://www.w3.org/2000/svg" viewBox="0 0 119 120" width="119" height="120">
	<title>Grupo 66</title>
	<defs>
		<clipPath clipPathUnits="userSpaceOnUse" id="cp1">
			<path d="m3.07 4.59h112.15v112.15h-112.15z"/>
		</clipPath>
	</defs>
	<style>
		.s0 { fill: #294845 } 
		.s1 { fill: none;stroke: #294845;stroke-linecap: round;stroke-miterlimit:100;stroke-width: 4.7 } 
	</style>
	<g id="Grupo 66">
		<g id="achievement">
			<g id="g2121">
				<g id="g2123">
					<g id="g2125" clip-path="url(#cp1)">
						<g id="g2131">
							<path id="path2133" class="s0" d="m59.1 72.9c1.3 0 2.2 1 2.2 2.2 0 1.2-0.9 2.2-2.2 2.2-1.2 0-2.1-1-2.1-2.2 0-1.2 0.9-2.2 2.1-2.2z"/>
						</g>
						<g id="g2135">
							<path id="path2137" class="s1" d="m43.2 83.6l-10.3-16.7-27.6 47.7h107.7l-27.6-47.7-10.3 16.7"/>
						</g>
						<g id="g2139">
							<path id="path2141" class="s1" d="m94.2 114.6l-35.1-57-35 57"/>
						</g>
						<g id="g2143">
							<path id="path2145" class="s1" d="m64.1 82.4l14.4 23.4"/>
						</g>
						<g id="g2147">
							<path id="path2149" class="s1" d="m59.1 57.6v-50.8"/>
						</g>
						<g id="g2151">
							<path id="path2153" class="s1" d="m59.1 6.8h35.1l-8.8 10.9 8.8 11h-35.1"/>
						</g>
					</g>
				</g>
			</g>
		</g>
	</g>
</svg>