<svg width="34" height="34" viewBox="0 0 34 34" fill="none" xmlns="http://www.w3.org/2000/svg">
<path fill-rule="evenodd" clip-rule="evenodd" d="M26.2508 17.7506C26.4498 17.5514 26.5616 17.2814 26.5616 16.9998C26.5616 16.7182 26.4498 16.4482 26.2508 16.249L20.5842 10.5823C20.4869 10.4779 20.3696 10.3942 20.2393 10.3361C20.1089 10.278 19.9682 10.2468 19.8256 10.2443C19.6829 10.2418 19.5412 10.268 19.4089 10.3215C19.2766 10.3749 19.1564 10.4544 19.0555 10.5553C18.9546 10.6562 18.8751 10.7764 18.8217 10.9087C18.7682 11.041 18.742 11.1827 18.7445 11.3254C18.747 11.468 18.7782 11.6087 18.8363 11.7391C18.8944 11.8694 18.9781 11.9867 19.0825 12.084L22.9358 15.9373H8.5C8.21821 15.9373 7.94796 16.0493 7.7487 16.2485C7.54944 16.4478 7.4375 16.718 7.4375 16.9998C7.4375 17.2816 7.54944 17.5519 7.7487 17.7511C7.94796 17.9504 8.21821 18.0623 8.5 18.0623H22.9358L19.0825 21.9156C18.9781 22.0129 18.8944 22.1302 18.8363 22.2605C18.7782 22.3909 18.747 22.5316 18.7445 22.6742C18.742 22.8169 18.7682 22.9586 18.8217 23.0909C18.8751 23.2232 18.9546 23.3434 19.0555 23.4443C19.1564 23.5452 19.2766 23.6247 19.4089 23.6782C19.5412 23.7316 19.6829 23.7578 19.8256 23.7553C19.9682 23.7528 20.1089 23.7216 20.2393 23.6635C20.3696 23.6054 20.4869 23.5217 20.5842 23.4173L26.2508 17.7506Z" fill="#DCEEB4"/>
</svg>
