<svg version="1.2" xmlns="http://www.w3.org/2000/svg" viewBox="0 0 110 103" width="110" height="103">
	<title>value</title>
	<style>
		.s0 { fill: #294845 } 
	</style>
	<g id="value">
		<g id="Grupo 53">
			<g id="Grupo 52">
				<path id="Caminho 46" fill-rule="evenodd" class="s0" d="m96.8 58l-38.2 42.9c-1 1-2.3 1.6-3.8 1.6q0 0 0 0c-1.4 0-2.7-0.6-3.7-1.6l-38.2-42.9c-1.5-1.7-1.7-4.2-0.4-6.1l11.9-18.4c0.9-1.4 2.5-2.2 4.2-2.2h52.5c1.7 0 3.3 0.8 4.2 2.2l11.9 18.4c1.3 1.9 1.1 4.4-0.4 6.1zm-38.1-22.5l10 15.5 10-15.5zm-3.8 2l-10 15.3h19.9zm-23.8-1.9l10 15.4 10-15.4zm-14.1 17.3h20.2l-10.1-15.5zm33.8 41.2l-11.4-37h-21.5zm15.1-36.9h-22l11 35.6zm26 0h-21.5l-11.4 36.9zm0.9-4.2l-10-15.5-10.1 15.5z"/>
			</g>
		</g>
		<g id="Grupo 55">
			<g id="Grupo 54">
				<path id="Caminho 47" class="s0" d="m6.6 52.8h-4.3c-1.2 0-2.2 1-2.2 2.2 0 1.2 1 2.1 2.2 2.1h4.3c1.2 0 2.1-0.9 2.1-2.1 0-1.2-0.9-2.2-2.1-2.2z"/>
			</g>
		</g>
		<g id="Grupo 57">
			<g id="Grupo 56">
				<path id="Caminho 48" class="s0" d="m107.4 52.8h-4.3c-1.2 0-2.1 1-2.1 2.2 0 1.2 0.9 2.1 2.1 2.1h4.3c1.2 0 2.2-0.9 2.2-2.1 0-1.2-1-2.2-2.2-2.2z"/>
			</g>
		</g>
		<g id="Grupo 59">
			<g id="Grupo 58">
				<path id="Caminho 49" class="s0" d="m93.6 16.3c-0.9-0.9-2.2-0.9-3 0l-7.1 7.1c-0.9 0.8-0.9 2.2 0 3 0.4 0.4 0.9 0.6 1.5 0.6 0.5 0 1.1-0.2 1.5-0.6l7.1-7.1c0.8-0.8 0.8-2.2 0-3z"/>
			</g>
		</g>
		<g id="Grupo 61">
			<g id="Grupo 60">
				<path id="Caminho 50" class="s0" d="m26.3 23.3l-7.1-7.1c-0.8-0.8-2.2-0.8-3 0-0.8 0.9-0.8 2.2 0 3.1l7.1 7.1c0.4 0.4 1 0.6 1.5 0.6 0.6 0 1.1-0.2 1.5-0.6 0.9-0.9 0.9-2.2 0-3.1z"/>
			</g>
		</g>
		<g id="Grupo 63">
			<g id="Grupo 62">
				<path id="Caminho 51" class="s0" d="m54.9 0.2c-1.2 0-2.1 1-2.1 2.2v13.9c0 1.2 0.9 2.1 2.1 2.1 1.2 0 2.1-0.9 2.1-2.1v-13.9c0-1.2-0.9-2.2-2.1-2.2z"/>
			</g>
		</g>
		<g id="Grupo 65">
			<g id="Grupo 64">
				<path id="Caminho 52" class="s0" d="m56.4 22c-0.4-0.4-0.9-0.6-1.5-0.6-0.6 0-1.1 0.2-1.5 0.6-0.4 0.4-0.6 1-0.6 1.5 0 0.6 0.2 1.2 0.6 1.6 0.4 0.4 0.9 0.6 1.5 0.6 0.6 0 1.1-0.2 1.5-0.6 0.4-0.4 0.6-1 0.6-1.6 0-0.5-0.2-1.1-0.6-1.5z"/>
			</g>
		</g>
	</g>
</svg>